<svg viewBox="0 0 120 82" fill="none" xmlns="http://www.w3.org/2000/svg">
<path d="M116 0H4C1.8 0 0 1.8 0 4V62V64V72C0 74.2 1.8 76 4 76H116C118.2 76 120 74.2 120 72V64V62V4C120 1.8 118.2 0 116 0ZM118 72C118 73.1 117.1 74 116 74H4C2.9 74 2 73.1 2 72V64H118V72ZM2 62V4C2 2.9 2.9 2 4 2H116C117.1 2 118 2.9 118 4V62H2Z" fill="#363C3A"/>
<path d="M63 70H56C55.4 70 55 69.6 55 69C55 68.4 55.4 68 56 68H63C63.6 68 64 68.4 64 69C64 69.6 63.6 70 63 70Z" fill="#363C3A"/>
<path d="M116 60H4V5C4 4.4 4.4 4 5 4H115C115.6 4 116 4.4 116 5V60ZM5 59H115V5H5V59Z" fill="#363C3A"/>
<path d="M75 82H45C44.4 82 44 81.6 44 81C44 80.4 44.4 80 45 80H75C75.6 80 76 80.4 76 81C76 81.6 75.6 82 75 82Z" fill="#363C3A"/>
<path d="M12 50.9C11.4 50.9 11 50.5 11 49.9V18C11 17.4 11.4 17 12 17C12.6 17 13 17.4 13 18V49.9C13 50.4 12.6 50.9 12 50.9Z" fill="#B7B7B7"/>
<path d="M90 42C80.9 42 73.5 34.6 73.5 25.5C73.5 16.8 80.3 9.6 88.9 9L89 11C81.4 11.5 75.5 17.8 75.5 25.5C75.5 33.5 82 40 90 40C93.4 40 96.8 38.8 99.4 36.6L100.7 38.1C97.7 40.6 93.9 42 90 42Z" fill="#363C3A"/>
<path d="M91.1 24.8V9H92.1C95 9 97.7 10 99.9 11.9L100.6 12.5L91.1 24.8ZM93.1 11V19L97.8 12.9C96.4 11.8 94.8 11.2 93.1 11Z" fill="#363C3A"/>
<path d="M102.2 37.2L91.8 25.5L102.2 13.7L103 14.4C105.9 17.2 107.6 21.2 107.6 25.4C107.6 29.6 105.9 33.6 103 36.4L102.2 37.2ZM94.4 25.5L102.2 34.3C104.3 31.9 105.5 28.7 105.5 25.5C105.5 22.2 104.3 19 102.2 16.7L94.4 25.5Z" fill="#009966"/>
<path d="M108.5 54H71.5C70.9 54 70.5 53.6 70.5 53C70.5 52.4 70.9 52 71.5 52H108.5C109.1 52 109.5 52.4 109.5 53C109.5 53.6 109.1 54 108.5 54Z" fill="#B7B7B7"/>
<path d="M87.2 49H71.5C70.9 49 70.5 48.6 70.5 48C70.5 47.4 70.9 47 71.5 47H87.2C87.8 47 88.2 47.4 88.2 48C88.2 48.6 87.8 49 87.2 49Z" fill="#B7B7B7"/>
<path d="M59.5 54H11.5C10.9 54 10.5 53.6 10.5 53C10.5 52.4 10.9 52 11.5 52H59.5C60.1 52 60.5 52.4 60.5 53C60.5 53.6 60.1 54 59.5 54Z" fill="#B7B7B7"/>
<path d="M57 50.4C46.9 50.4 42.9 47.7 39.7 45.5C38 45.9 36.8 46.4 35.7 47C34.1 47.7 32.5 48.5 29.5 48.9C25.4 49.4 23 48 20.7 46.7C18.8 45.6 17.1 44.6 14.5 44.6C14.2 44.6 14 44.4 14 44.1C14 43.8 14.2 43.6 14.5 43.6C17.4 43.6 19.3 44.7 21.2 45.8C23.5 47.1 25.7 48.3 29.4 47.9C32.2 47.6 33.7 46.9 35.3 46.1C36.3 45.6 37.3 45.1 38.6 44.8C36.7 43.5 34.8 42.5 31.5 42.5C27.2 42.5 26.2 38.3 25.3 34.6V34.5C24.3 35 23.4 35.7 22.3 36.6C18.9 39.4 16.5 39.4 14.9 39.4H14.5C14.2 39.4 14 39.2 14 38.9C14 38.6 14.2 38.4 14.5 38.4H14.9C16.3 38.4 18.5 38.5 21.7 35.9C22.7 35.1 23.8 34.3 25 33.6C24.3 30.7 23.4 28.3 21 28.3C19.3 28.3 18.6 28.8 17.7 29.3C16.9 29.8 16 30.4 14.5 30.4C14.2 30.4 14 30.2 14 29.9C14 29.6 14.2 29.4 14.5 29.4C15.8 29.4 16.4 29 17.2 28.5C18.1 27.9 19 27.3 21 27.3C24.1 27.3 25.1 30.1 25.9 33.1C29.2 31.6 33.3 31.5 37.8 35.9C41.2 39.3 44.4 42.1 47.2 44.3C49.8 44.4 53 44.7 57 45.3C57.3 45.3 57.5 45.6 57.4 45.9C57.3 46.2 57.1 46.4 56.8 46.3C53.5 45.8 50.8 45.5 48.5 45.4C52.1 48.1 55 49.6 56.8 49.6C57.1 49.6 57.3 49.8 57.3 50.1C57.3 50.4 57.3 50.4 57 50.4ZM41.2 45.2C43.8 46.9 46.9 48.7 53.2 49.2C51.3 48.2 49.1 46.8 46.9 45.1C44.4 45 42.6 45 41.2 45.2ZM26.2 33.9C26.2 34 26.3 34.1 26.3 34.2C27.2 37.9 28 41.4 31.5 41.4C35.5 41.4 37.7 42.8 40 44.4C41.4 44.1 43.2 44 45.6 44C42.5 41.4 39.4 38.6 37.2 36.4C33.6 32.9 30.1 32.1 26.2 33.9Z" fill="#363C3A"/>
<path d="M51.5 19C50.9 19 50.5 18.6 50.5 18C50.5 17.4 50.9 17 51.5 17C52.1 17 52.5 17.4 52.5 18C52.5 18.6 52.1 19 51.5 19Z" fill="#B7B7B7"/>
<path d="M55.5 19C54.9 19 54.5 18.6 54.5 18C54.5 17.4 54.9 17 55.5 17C56.1 17 56.5 17.4 56.5 18C56.5 18.6 56.1 19 55.5 19Z" fill="#B7B7B7"/>
<path d="M59.5 19C58.9 19 58.5 18.6 58.5 18C58.5 17.4 58.9 17 59.5 17C60.1 17 60.5 17.4 60.5 18C60.5 18.6 60.1 19 59.5 19Z" fill="#B7B7B7"/>
<path d="M51.5 23C50.9 23 50.5 22.6 50.5 22C50.5 21.4 50.9 21 51.5 21C52.1 21 52.5 21.4 52.5 22C52.5 22.6 52.1 23 51.5 23Z" fill="#B7B7B7"/>
<path d="M55.5 23C54.9 23 54.5 22.6 54.5 22C54.5 21.4 54.9 21 55.5 21C56.1 21 56.5 21.4 56.5 22C56.5 22.6 56.1 23 55.5 23Z" fill="#B7B7B7"/>
<path d="M59.5 23C58.9 23 58.5 22.6 58.5 22C58.5 21.4 58.9 21 59.5 21C60.1 21 60.5 21.4 60.5 22C60.5 22.6 60.1 23 59.5 23Z" fill="#B7B7B7"/>
<path d="M51.5 27C50.9 27 50.5 26.6 50.5 26C50.5 25.4 50.9 25 51.5 25C52.1 25 52.5 25.4 52.5 26C52.5 26.6 52.1 27 51.5 27Z" fill="#B7B7B7"/>
<path d="M55.5 27C54.9 27 54.5 26.6 54.5 26C54.5 25.4 54.9 25 55.5 25C56.1 25 56.5 25.4 56.5 26C56.5 26.6 56.1 27 55.5 27Z" fill="#B7B7B7"/>
<path d="M59.5 27C58.9 27 58.5 26.6 58.5 26C58.5 25.4 58.9 25 59.5 25C60.1 25 60.5 25.4 60.5 26C60.5 26.6 60.1 27 59.5 27Z" fill="#B7B7B7"/>
</svg>
