<svg width="23" height="47" viewBox="0 0 23 47" xmlns="http://www.w3.org/2000/svg">
<path d="M5.02187 0H0.521873C0.121873 0 -0.0781273 0.5 0.121873 0.8L17.0094 23.0518C17.0842 23.1504 17.1586 23.2537 17.1838 23.3749C17.2012 23.4583 17.2012 23.5417 17.1838 23.6251C17.1586 23.7463 17.0842 23.8496 17.0094 23.9482L0.121873 46.2C-0.178127 46.5 0.121873 47 0.521873 47H5.02187C5.22187 47 5.32187 46.9 5.42187 46.8L21.4219 25.7L22.7946 23.9612C22.8792 23.854 22.9637 23.7406 22.9875 23.6061C23.001 23.5295 22.9999 23.4528 22.9841 23.3761C22.9589 23.2541 22.8839 23.1501 22.8084 23.0509L5.42187 0.2C5.32187 0.1 5.22187 0 5.02187 0Z" fill="#F0F5F3"/>
</svg>
