<svg viewBox="0 0 120 82" fill="none" xmlns="http://www.w3.org/2000/svg">
<path d="M116 0H4C1.8 0 0 1.8 0 4V62V64V72C0 74.2 1.8 76 4 76H116C118.2 76 120 74.2 120 72V64V62V4C120 1.8 118.2 0 116 0ZM118 72C118 73.1 117.1 74 116 74H4C2.9 74 2 73.1 2 72V64H118V72ZM2 62V4C2 2.9 2.9 2 4 2H116C117.1 2 118 2.9 118 4V62H2Z" fill="#363C3A"/>
<path d="M63 70H56C55.4 70 55 69.6 55 69C55 68.4 55.4 68 56 68H63C63.6 68 64 68.4 64 69C64 69.6 63.6 70 63 70Z" fill="#363C3A"/>
<path d="M116 60H4V5C4 4.4 4.4 4 5 4H115C115.6 4 116 4.4 116 5V60ZM5 59H115V5H5V59Z" fill="#363C3A"/>
<path d="M75 82H45C44.4 82 44 81.6 44 81C44 80.4 44.4 80 45 80H75C75.6 80 76 80.4 76 81C76 81.6 75.6 82 75 82Z" fill="#363C3A"/>
<path d="M18.5 21.3C18.4 21.3 18.3 21.3 18.2 21.3C17.7 21.1 17.4 20.6 17.6 20L20.6 10.7C20.8 10.2 21.3 9.9 21.9 10.1C22.4 10.3 22.7 10.8 22.5 11.4L19.5 20.7C19.3 21 18.9 21.3 18.5 21.3Z" fill="#009966"/>
<path d="M15.5 19.3001C15.3 19.3001 15.2 19.3001 15 19.2001L10 16.6001C9.7 16.4001 9.5 16.1001 9.5 15.7001C9.5 15.3001 9.7 15.0001 10 14.8001L15 12.1001C15.5 11.8001 16.1 12.0001 16.4 12.5001C16.7 13.0001 16.5 13.6001 16 13.9001L12.7 15.7001L16 17.4001C16.5 17.7001 16.7 18.3001 16.4 18.7001C16.2 19.1001 15.9 19.3001 15.5 19.3001Z" fill="#009966"/>
<path d="M24.5 19.3001C24.1 19.3001 23.8 19.1001 23.6 18.8001C23.3 18.3001 23.5 17.7001 24 17.5001L27.3 15.8001L24 13.9001C23.5 13.6001 23.3 13.0001 23.6 12.5001C23.9 12.0001 24.5 11.8001 25 12.1001L30 14.8001C30.3 15.0001 30.5 15.3001 30.5 15.7001C30.5 16.1001 30.3 16.4001 30 16.6001L25 19.2001C24.8 19.3001 24.7 19.3001 24.5 19.3001Z" fill="#009966"/>
<path d="M89.5 55C88.4 55 87.4 54.9 86.3 54.7L85.7 54.6L84.6 49.6C83.7 49.3 82.9 49 82.1 48.6L77.7 51.4L77.1 51C75.5 49.9 74 48.4 72.6 46.5L72.2 45.9L75.1 41.5C74.6 40.6 74.3 39.8 74.1 39L69 37.9L68.9 37.3C68.7 36.2 68.6 35.2 68.6 34.1C68.6 33 68.7 32 68.9 30.9L69 30.3L74 29.2C74.3 28.3 74.6 27.5 75 26.7L72.2 22.3L72.6 21.7C73.9 19.9 75.3 18.4 77.1 17.2L77.7 16.8L82.1 19.6C83 19.1 83.8 18.8 84.6 18.6L85.7 13.5L86.3 13.4C88.4 13 90.6 13 92.7 13.4L93.3 13.5L94.4 18.5C95.3 18.8 96.1 19.1 96.9 19.5L101.3 16.7L101.9 17.1C103.5 18.2 105 19.7 106.4 21.6L106.8 22.2L103.9 26.6C104.4 27.5 104.7 28.3 104.9 29.1L110 30.2L110.1 30.8C110.3 31.9 110.4 32.9 110.4 34C110.4 35.1 110.3 36.1 110.1 37.2L110 37.8L105 38.9C104.7 39.8 104.4 40.6 104 41.4L106.8 45.8L106.4 46.4C105.3 48 103.8 49.5 101.9 50.9L101.3 51.3L96.9 48.4C96 48.9 95.2 49.2 94.4 49.4L93.3 54.5L92.7 54.6C91.6 54.9 90.6 55 89.5 55ZM87.3 52.8C88.7 53 90.2 53 91.6 52.8L92.7 47.8L93.3 47.7C94.3 47.5 95.3 47.1 96.5 46.4L97 46.1L101.2 48.8C102.5 47.8 103.5 46.8 104.3 45.7L101.5 41.5L101.8 41C102.4 40.1 102.8 39 103.1 37.9L103.2 37.3L108.2 36.2C108.3 35.5 108.4 34.8 108.4 34C108.4 33.2 108.3 32.6 108.2 31.8L103.2 30.7L103.1 30.1C102.9 29.1 102.5 28.1 101.8 26.9L101.5 26.4L104.2 22.2C103.2 20.9 102.2 19.9 101.1 19.1L97 21.9L96.5 21.6C95.6 21 94.5 20.6 93.4 20.3L92.8 20.1L91.7 15.1C90.3 14.9 88.8 14.9 87.4 15.1L86.3 20.1L85.7 20.3C84.7 20.5 83.7 20.9 82.5 21.6L82 21.9L77.8 19.2C76.6 20.1 75.6 21.1 74.7 22.3L77.5 26.5L77.1 27C76.5 27.9 76.1 29 75.8 30.1L75.7 30.7L70.7 31.8C70.6 32.5 70.5 33.2 70.5 34C70.5 34.8 70.6 35.4 70.7 36.2L75.7 37.3L75.8 37.9C76 38.9 76.4 39.9 77.1 41.1L77.4 41.6L74.7 45.8C75.7 47.1 76.7 48.1 77.8 48.9L82 46.1L82.5 46.4C83.4 47 84.5 47.4 85.6 47.7L86.2 47.8L87.3 52.8Z" fill="#009966"/>
<path d="M89.7 43.5C84.2 43.5 79.7 39 79.7 33.5C79.7 28 84.2 23.5 89.7 23.5C95.2 23.5 99.7 28 99.7 33.5C99.7 39 95.2 43.5 89.7 43.5ZM89.7 25.5C85.3 25.5 81.7 29.1 81.7 33.5C81.7 37.9 85.3 41.5 89.7 41.5C94.1 41.5 97.7 37.9 97.7 33.5C97.7 29.1 94.1 25.5 89.7 25.5Z" fill="#009966"/>
<path d="M54.5 47H10.5C9.9 47 9.5 46.6 9.5 46C9.5 45.4 9.9 45 10.5 45H54.5C55.1 45 55.5 45.4 55.5 46C55.5 46.6 55.1 47 54.5 47ZM54.5 42H10.5C9.9 42 9.5 41.6 9.5 41C9.5 40.4 9.9 40 10.5 40H54.5C55.1 40 55.5 40.4 55.5 41C55.5 41.6 55.1 42 54.5 42ZM38.5 36H10.5C9.9 36 9.5 35.6 9.5 35C9.5 34.4 9.9 34 10.5 34H38.5C39.1 34 39.5 34.4 39.5 35C39.5 35.6 39.1 36 38.5 36ZM38.5 31H10.5C9.9 31 9.5 30.6 9.5 30C9.5 29.4 9.9 29 10.5 29H38.5C39.1 29 39.5 29.4 39.5 30C39.5 30.6 39.1 31 38.5 31Z" fill="#B7B7B7"/>
</svg>
