<svg viewBox="0 0 38 40" fill="none" xmlns="http://www.w3.org/2000/svg">
<path d="M27 7V1L33 7H27Z" stroke="#009966" stroke-width="2" stroke-linecap="square" stroke-linejoin="round"/>
<rect x="1" y="13" width="36" height="14.3587" stroke="#009966" stroke-width="2"/>
<path d="M13.8493 16.236C14.8413 16.236 15.3373 16.764 15.3373 17.82V22.416C15.3373 23.472 14.8413 24 13.8493 24H10.7653V16.236H13.8493ZM13.6573 22.608V17.616C13.6573 17.552 13.6333 17.496 13.5853 17.448C13.5453 17.4 13.4933 17.376 13.4293 17.376H12.4453V22.848H13.4293C13.4933 22.848 13.5453 22.824 13.5853 22.776C13.6333 22.728 13.6573 22.672 13.6573 22.608ZM21.1615 17.7V22.536C21.1615 23.592 20.6655 24.12 19.6735 24.12H18.0775C17.0855 24.12 16.5895 23.592 16.5895 22.536V17.7C16.5895 16.644 17.0855 16.116 18.0775 16.116H19.6735C20.6655 16.116 21.1615 16.644 21.1615 17.7ZM19.4815 22.728V17.496C19.4815 17.432 19.4575 17.376 19.4095 17.328C19.3695 17.28 19.3175 17.256 19.2535 17.256H18.4975C18.4335 17.256 18.3775 17.28 18.3295 17.328C18.2895 17.376 18.2695 17.432 18.2695 17.496V22.728C18.2695 22.792 18.2895 22.848 18.3295 22.896C18.3775 22.944 18.4335 22.968 18.4975 22.968H19.2535C19.3175 22.968 19.3695 22.944 19.4095 22.896C19.4575 22.848 19.4815 22.792 19.4815 22.728ZM25.294 22.728V21.528H26.89V22.536C26.89 23.592 26.394 24.12 25.402 24.12H23.89C22.898 24.12 22.402 23.592 22.402 22.536V17.7C22.402 16.644 22.898 16.116 23.89 16.116H25.402C26.394 16.116 26.89 16.644 26.89 17.7V18.432H25.294V17.496C25.294 17.432 25.27 17.376 25.222 17.328C25.182 17.28 25.13 17.256 25.066 17.256H24.31C24.246 17.256 24.19 17.28 24.142 17.328C24.102 17.376 24.082 17.432 24.082 17.496V22.728C24.082 22.792 24.102 22.848 24.142 22.896C24.19 22.944 24.246 22.968 24.31 22.968H25.066C25.13 22.968 25.182 22.944 25.222 22.896C25.27 22.848 25.294 22.792 25.294 22.728Z" fill="#009966"/>
<path d="M27 1H5V13M33 7V13M33 27V39H5V27" stroke="#009966" stroke-width="2"/>
</svg>
