<svg width="120" height="82" viewBox="0 0 120 82" fill="none" xmlns="http://www.w3.org/2000/svg">
<path d="M116 0H4C1.8 0 0 1.8 0 4V62V64V72C0 74.2 1.8 76 4 76H116C118.2 76 120 74.2 120 72V64V62V4C120 1.8 118.2 0 116 0ZM118 72C118 73.1 117.1 74 116 74H4C2.9 74 2 73.1 2 72V64H118V72ZM2 62V4C2 2.9 2.9 2 4 2H116C117.1 2 118 2.9 118 4V62H2Z" fill="#363C3A"/>
<path d="M63 70H56C55.4 70 55 69.6 55 69C55 68.4 55.4 68 56 68H63C63.6 68 64 68.4 64 69C64 69.6 63.6 70 63 70Z" fill="#363C3A"/>
<path d="M116 60H4V5C4 4.4 4.4 4 5 4H115C115.6 4 116 4.4 116 5V60ZM5 59H115V5H5V59ZM5 4.5V5V4.5Z" fill="#363C3A"/>
<path d="M75 82H45C44.4 82 44 81.6 44 81C44 80.4 44.4 80 45 80H75C75.6 80 76 80.4 76 81C76 81.6 75.6 82 75 82Z" fill="#363C3A"/>
<path d="M95.7 22.9C98.2 22.9 100.2 21 100.2 18.7C100.2 16.4 98.2 14.5 95.7 14.5H93.6C93 14.5 92.6 14.9 92.6 15.5V21H91.8C91.2 21 90.8 21.4 90.8 22C90.8 22.6 91.2 23 91.8 23H92.6V23.8H91.8C91.2 23.8 90.8 24.2 90.8 24.8C90.8 25.4 91.2 25.8 91.8 25.8H92.6V26.6C92.6 27.2 93 27.6 93.6 27.6C94.2 27.6 94.6 27.2 94.6 26.6V25.8H96C96.6 25.8 97 25.4 97 24.8C97 24.2 96.6 23.8 96 23.8H94.7V23H95.7V22.9ZM94.7 16.5H95.8C97.2 16.5 98.3 17.5 98.3 18.7C98.3 19.9 97.2 20.9 95.8 20.9H94.7V16.5Z" fill="#009966"/>
<path d="M47.5 27H13.5C12.9 27 12.5 26.6 12.5 26C12.5 25.4 12.9 25 13.5 25H47.5C48.1 25 48.5 25.4 48.5 26C48.5 26.6 48.1 27 47.5 27Z" fill="#B7B7B7"/>
<path d="M47.5 32H13.5C12.9 32 12.5 31.6 12.5 31C12.5 30.4 12.9 30 13.5 30H47.5C48.1 30 48.5 30.4 48.5 31C48.5 31.6 48.1 32 47.5 32Z" fill="#B7B7B7"/>
<path d="M28 22H13.5C12.9 22 12.5 21.6 12.5 21C12.5 20.4 12.9 20 13.5 20H28C28.6 20 29 20.4 29 21C29 21.6 28.5 22 28 22Z" fill="#B7B7B7"/>
<path d="M80.5 21C74.5 21 74.5 22.1 74.5 35C74.5 41.2 74.5 44.6 73.9 46C73.5 46.9 73.1 47 70.5 47C69.9 47 69.5 47.4 69.5 48C69.5 48.6 69.9 49 70.5 49C76.5 49 76.5 47.9 76.5 35C76.5 28.8 76.5 25.4 77.1 24C77.5 23.1 77.9 23 80.5 23C81.1 23 81.5 22.6 81.5 22C81.5 21.4 81.1 21 80.5 21Z" fill="#B7B7B7"/>
<path d="M95.5 33C88.9 33 83.5 27.6 83.5 21C83.5 14.4 88.9 9 95.5 9C102.1 9 107.5 14.4 107.5 21C107.5 27.6 102.1 33 95.5 33ZM95.5 11C90 11 85.5 15.5 85.5 21C85.5 26.5 90 31 95.5 31C101 31 105.5 26.5 105.5 21C105.5 15.5 101 11 95.5 11Z" fill="#009966"/>
<path d="M29.5 55H17.5C15.3 55 13.5 53.2 13.5 51V45C13.5 42.8 15.3 41 17.5 41H29.5C31.7 41 33.5 42.8 33.5 45V51C33.5 53.2 31.7 55 29.5 55ZM17.5 43C16.4 43 15.5 43.9 15.5 45V51C15.5 52.1 16.4 53 17.5 53H29.5C30.6 53 31.5 52.1 31.5 51V45C31.5 43.9 30.6 43 29.5 43H17.5Z" fill="#363C3A"/>
<path d="M63.5 55H51.5C49.3 55 47.5 53.2 47.5 51V45C47.5 42.8 49.3 41 51.5 41H63.5C65.7 41 67.5 42.8 67.5 45V51C67.5 53.2 65.7 55 63.5 55ZM51.5 43C50.4 43 49.5 43.9 49.5 45V51C49.5 52.1 50.4 53 51.5 53H63.5C64.6 53 65.5 52.1 65.5 51V45C65.5 43.9 64.6 43 63.5 43H51.5Z" fill="#363C3A"/>
<path d="M97.5 55H85.5C83.3 55 81.5 53.2 81.5 51V45C81.5 42.8 83.3 41 85.5 41H97.5C99.7 41 101.5 42.8 101.5 45V51C101.5 53.2 99.7 55 97.5 55ZM85.5 43C84.4 43 83.5 43.9 83.5 45V51C83.5 52.1 84.4 53 85.5 53H97.5C98.6 53 99.5 52.1 99.5 51V45C99.5 43.9 98.6 43 97.5 43H85.5Z" fill="#363C3A"/>
</svg>
