<svg viewBox="0 0 120 82" fill="none" xmlns="http://www.w3.org/2000/svg">
<path d="M116 0H4C1.8 0 0 1.8 0 4V62V64V72C0 74.2 1.8 76 4 76H116C118.2 76 120 74.2 120 72V64V62V4C120 1.8 118.2 0 116 0ZM118 72C118 73.1 117.1 74 116 74H4C2.9 74 2 73.1 2 72V64H118V72ZM2 62V4C2 2.9 2.9 2 4 2H116C117.1 2 118 2.9 118 4V62H2Z" fill="#363C3A"/>
<path d="M63 70H56C55.4 70 55 69.6 55 69C55 68.4 55.4 68 56 68H63C63.6 68 64 68.4 64 69C64 69.6 63.6 70 63 70Z" fill="#363C3A"/>
<path d="M116 60H4V5C4 4.4 4.4 4 5 4H115C115.6 4 116 4.4 116 5V60ZM5 59H115V5H5V59Z" fill="#363C3A"/>
<path d="M75 82H45C44.4 82 44 81.6 44 81C44 80.4 44.4 80 45 80H75C75.6 80 76 80.4 76 81C76 81.6 75.6 82 75 82Z" fill="#363C3A"/>
<path d="M66 54H54C51.8 54 50 52.2 50 50V38C50 35.8 51.8 34 54 34H66C68.2 34 70 35.8 70 38V50C70 52.2 68.2 54 66 54ZM54 36C52.9 36 52 36.9 52 38V50C52 51.1 52.9 52 54 52H66C67.1 52 68 51.1 68 50V38C68 36.9 67.1 36 66 36H54Z" fill="#009966"/>
<path d="M62 22H58C55.8 22 54 20.2 54 18V14C54 11.8 55.8 10 58 10H62C64.2 10 66 11.8 66 14V18C66 20.2 64.2 22 62 22ZM58 12C56.9 12 56 12.9 56 14V18C56 19.1 56.9 20 58 20H62C63.1 20 64 19.1 64 18V14C64 12.9 63.1 12 62 12H58Z" fill="#363C3A"/>
<path d="M92 51H88C85.8 51 84 49.2 84 47V43C84 40.8 85.8 39 88 39H92C94.2 39 96 40.8 96 43V47C96 49.2 94.2 51 92 51ZM88 41C86.9 41 86 41.9 86 43V47C86 48.1 86.9 49 88 49H92C93.1 49 94 48.1 94 47V43C94 41.9 93.1 41 92 41H88Z" fill="#363C3A"/>
<path d="M32 51H28C25.8 51 24 49.2 24 47V43C24 40.8 25.8 39 28 39H32C34.2 39 36 40.8 36 43V47C36 49.2 34.2 51 32 51ZM28 41C26.9 41 26 41.9 26 43V47C26 48.1 26.9 49 28 49H32C33.1 49 34 48.1 34 47V43C34 41.9 33.1 41 32 41H28Z" fill="#363C3A"/>
<path d="M80 44H74C73.4 44 73 44.4 73 45C73 45.6 73.4 46 74 46H80C80.6 46 81 45.6 81 45C81 44.4 80.6 44 80 44Z" fill="#B7B7B7"/>
<path d="M46 44H40C39.4 44 39 44.4 39 45C39 45.6 39.4 46 40 46H46C46.6 46 47 45.6 47 45C47 44.4 46.6 44 46 44Z" fill="#B7B7B7"/>
<path d="M60 24C59.4 24 59 24.4 59 25V31C59 31.6 59.4 32 60 32C60.6 32 61 31.6 61 31V25C61 24.4 60.6 24 60 24Z" fill="#B7B7B7"/>
</svg>
