<svg viewBox="0 0 120 82" fill="none" xmlns="http://www.w3.org/2000/svg">
<path d="M116 0H4C1.8 0 0 1.8 0 4V62V64V72C0 74.2 1.8 76 4 76H116C118.2 76 120 74.2 120 72V64V62V4C120 1.8 118.2 0 116 0ZM118 72C118 73.1 117.1 74 116 74H4C2.9 74 2 73.1 2 72V64H118V72ZM2 62V4C2 2.9 2.9 2 4 2H116C117.1 2 118 2.9 118 4V62H2Z" fill="#363C3A"/>
<path d="M63 70H56C55.4 70 55 69.6 55 69C55 68.4 55.4 68 56 68H63C63.6 68 64 68.4 64 69C64 69.6 63.6 70 63 70Z" fill="#363C3A"/>
<path d="M116 60H4V5C4 4.4 4.4 4 5 4H115C115.6 4 116 4.4 116 5V60ZM5 59H115V5H5V59ZM5 4.5V5V4.5Z" fill="#363C3A"/>
<path d="M75 82H45C44.4 82 44 81.6 44 81C44 80.4 44.4 80 45 80H75C75.6 80 76 80.4 76 81C76 81.6 75.6 82 75 82Z" fill="#363C3A"/>
<path d="M73.3 45.2C73.1 45.2 73 45.2 72.8 45.1C72.5 44.9 72.3 44.6 72.3 44.2V34.1L55.3 33.1C54.8 33.1 54.4 32.6 54.4 32.1V22.1C54.4 21.6 54.8 21.1 55.3 21.1L72.3 20.1V9.99998C72.3 9.59998 72.5 9.29998 72.8 9.09998C73.1 8.89998 73.5 8.99998 73.8 9.19998L98.5 26.3C98.8 26.5 98.9 26.8 98.9 27.1C98.9 27.4 98.7 27.7 98.5 27.9L73.9 45.1C73.7 45.2 73.5 45.2 73.3 45.2ZM56.3 31.2L73.3 32.2C73.8 32.2 74.2 32.7 74.2 33.2V42.4L96.2 27.2L74.2 12V21.2C74.2 21.7 73.8 22.2 73.3 22.2L56.3 23.2V31.2Z" fill="#009966"/>
<path d="M51.1 32.3999C50.5 32.3999 50.1 31.9999 50.1 31.3999V22.7999C50.1 22.1999 50.5 21.7999 51.1 21.7999C51.7 21.7999 52.1 22.1999 52.1 22.7999V31.3999C52.1 31.9999 51.6 32.3999 51.1 32.3999Z" fill="#009966"/>
<path d="M46.8 31.3C46.2 31.3 45.8 30.9 45.8 30.3V23.9C45.8 23.3 46.2 22.9 46.8 22.9C47.4 22.9 47.8 23.3 47.8 23.9V30.3C47.8 30.9 47.3 31.3 46.8 31.3Z" fill="#009966"/>
<path d="M56.1 47.5C55.5 47.5 55.1 47.1 55.1 46.5V40.1C55.1 39.5 55.5 39.1 56.1 39.1C56.7 39.1 57.1 39.5 57.1 40.1V46.5C57.1 47.1 56.7 47.5 56.1 47.5Z" fill="#B7B7B7"/>
<path d="M39.3 54.9999C39.1 54.9999 38.9 54.9999 38.8 54.8999L21.5 44.1999C21.2 43.9999 21 43.5999 21 43.2999C21 42.9999 21.2 42.5999 21.5 42.3999L38.8 31.6999C39.1 31.4999 39.5 31.4999 39.8 31.6999C40.1 31.8999 40.3 32.1999 40.3 32.5999V38.5999L51.9 39.1999C52.4 39.1999 52.9 39.6999 52.9 40.1999V46.4999C52.9 46.9999 52.5 47.4999 51.9 47.4999L40.3 47.9999V53.9999C40.3 54.3999 40.1 54.6999 39.8 54.8999C39.6 54.9999 39.5 54.9999 39.3 54.9999ZM23.9 43.2999L38.3 52.1999V47.0999C38.3 46.5999 38.7 46.0999 39.3 46.0999L50.9 45.4999V41.0999L39.3 40.4999C38.8 40.4999 38.3 39.9999 38.3 39.4999V34.3999L23.9 43.2999Z" fill="#B7B7B7"/>
</svg>
