<svg viewBox="0 0 120 82" fill="none" xmlns="http://www.w3.org/2000/svg">
<path d="M116 0H4C1.8 0 0 1.8 0 4V62V64V72C0 74.2 1.8 76 4 76H116C118.2 76 120 74.2 120 72V64V62V4C120 1.8 118.2 0 116 0ZM118 72C118 73.1 117.1 74 116 74H4C2.9 74 2 73.1 2 72V64H118V72ZM2 62V4C2 2.9 2.9 2 4 2H116C117.1 2 118 2.9 118 4V62H2Z" fill="#363C3A"/>
<path d="M63 70H56C55.4 70 55 69.6 55 69C55 68.4 55.4 68 56 68H63C63.6 68 64 68.4 64 69C64 69.6 63.6 70 63 70Z" fill="#363C3A"/>
<path d="M116 60H4V5C4 4.4 4.4 4 5 4H115C115.6 4 116 4.4 116 5V60ZM5 59H115V5H5V59ZM5 4.5V5V4.5Z" fill="#363C3A"/>
<path d="M75 82H45C44.4 82 44 81.6 44 81C44 80.4 44.4 80 45 80H75C75.6 80 76 80.4 76 81C76 81.6 75.6 82 75 82Z" fill="#363C3A"/>
<path d="M25.8 24.6C23.1 24.6 20.9 22.4 20.9 19.7C20.9 17 23.1 14.8 25.8 14.8C28.5 14.8 30.7 17 30.7 19.7C30.7 22.4 28.5 24.6 25.8 24.6ZM25.8 16.9C24.2 16.9 22.9 18.2 22.9 19.8C22.9 21.4 24.2 22.7 25.8 22.7C27.4 22.7 28.7 21.4 28.7 19.8C28.7 18.1 27.4 16.9 25.8 16.9Z" fill="#009966"/>
<path d="M33.6 35.4C33 35.4 32.6 35 32.6 34.4C32.6 30.6 29.5 27.6 25.8 27.6C22 27.6 19 30.7 19 34.4C19 35 18.6 35.4 18 35.4C17.4 35.4 17 35 17 34.4C17 29.5 20.9 25.6 25.8 25.6C30.7 25.6 34.6 29.5 34.6 34.4C34.6 34.9 34.2 35.4 33.6 35.4Z" fill="#009966"/>
<path d="M54.2 34.4H39.6C39 34.4 38.6 34 38.6 33.4C38.6 32.8 39 32.4 39.6 32.4H54.2C54.8 32.4 55.2 32.8 55.2 33.4C55.2 34 54.8 34.4 54.2 34.4ZM54.2 29.5H39.6C39 29.5 38.6 29.1 38.6 28.5C38.6 27.9 39 27.5 39.6 27.5H54.2C54.8 27.5 55.2 27.9 55.2 28.5C55.2 29.1 54.8 29.5 54.2 29.5ZM48.9 24.6H39.6C39 24.6 38.6 24.2 38.6 23.6C38.6 23 39 22.6 39.6 22.6H48.9C49.5 22.6 49.9 23 49.9 23.6C49.9 24.2 49.5 24.6 48.9 24.6Z" fill="#363C3A"/>
<path d="M59 41H13C11.9 41 11 40.1 11 39V11C11 9.9 11.9 9 13 9H59C60.1 9 61 9.9 61 11V39C61 40.1 60.1 41 59 41ZM13 11V39H59V11H13Z" fill="#363C3A"/>
<path d="M71.8 21C71.5 21 71.1 20.8 71 20.5L68.7 17C68.4 16.5 68.5 15.9 69 15.6C69.5 15.3 70.1 15.4 70.4 15.9L71.7 17.9L74.2 13C74.4 12.5 75 12.3 75.5 12.6C76 12.8 76.2 13.4 75.9 13.9L72.6 20.4C72.5 20.8 72.2 21 71.8 21Z" fill="#B7B7B7"/>
<path d="M109 18H83C82.4 18 82 17.6 82 17C82 16.4 82.4 16 83 16H109C109.6 16 110 16.4 110 17C110 17.6 109.6 18 109 18Z" fill="#B7B7B7"/>
<path d="M109 23H83C82.4 23 82 22.6 82 22C82 21.4 82.4 21 83 21H109C109.6 21 110 21.4 110 22C110 22.6 109.6 23 109 23Z" fill="#B7B7B7"/>
<path d="M94 13H83C82.4 13 82 12.6 82 12C82 11.4 82.4 11 83 11H94C94.6 11 95 11.4 95 12C95 12.6 94.6 13 94 13Z" fill="#B7B7B7"/>
<path d="M71.8 37C71.5 37 71.1 36.8 71 36.5L68.7 33C68.4 32.5 68.5 31.9 69 31.6C69.5 31.3 70.1 31.4 70.4 31.9L71.7 33.9L74.2 29C74.4 28.5 75 28.3 75.5 28.6C76 28.8 76.2 29.4 75.9 29.9L72.6 36.4C72.5 36.8 72.2 37 71.8 37Z" fill="#B7B7B7"/>
<path d="M109 34H83C82.4 34 82 33.6 82 33C82 32.4 82.4 32 83 32H109C109.6 32 110 32.4 110 33C110 33.6 109.6 34 109 34Z" fill="#B7B7B7"/>
<path d="M109 39H83C82.4 39 82 38.6 82 38C82 37.4 82.4 37 83 37H109C109.6 37 110 37.4 110 38C110 38.6 109.6 39 109 39Z" fill="#B7B7B7"/>
<path d="M94 29H83C82.4 29 82 28.6 82 28C82 27.4 82.4 27 83 27H94C94.6 27 95 27.4 95 28C95 28.6 94.6 29 94 29Z" fill="#B7B7B7"/>
<path d="M60 54H12C11.4 54 11 53.6 11 53C11 52.4 11.4 52 12 52H60C60.6 52 61 52.4 61 53C61 53.6 60.6 54 60 54Z" fill="#B7B7B7"/>
<path d="M32.4 48H12C11.4 48 11 47.6 11 47C11 46.4 11.4 46 12 46H32.4C33 46 33.4 46.4 33.4 47C33.4 47.6 33 48 32.4 48Z" fill="#B7B7B7"/>
</svg>
