<svg width="120" height="82" viewBox="0 0 120 82" fill="none" xmlns="http://www.w3.org/2000/svg">
<path d="M63 70H56C55.4 70 55 69.6 55 69C55 68.4 55.4 68 56 68H63C63.6 68 64 68.4 64 69C64 69.6 63.6 70 63 70Z" fill="#363C3A"/>
<path d="M116 60H4V5C4 4.4 4.4 4 5 4H115C115.6 4 116 4.4 116 5V60ZM5 59H115V5H5V59Z" fill="#363C3A"/>
<path d="M75 82H45C44.4 82 44 81.6 44 81C44 80.4 44.4 80 45 80H75C75.6 80 76 80.4 76 81C76 81.6 75.6 82 75 82Z" fill="#363C3A"/>
<path d="M116 0H4C1.8 0 0 1.8 0 4V62V64V72C0 74.2 1.8 76 4 76H116C118.2 76 120 74.2 120 72V64V62V4C120 1.8 118.2 0 116 0ZM118 72C118 73.1 117.1 74 116 74H4C2.9 74 2 73.1 2 72V64H118V72ZM2 62V4C2 2.9 2.9 2 4 2H116C117.1 2 118 2.9 118 4V62H2Z" fill="#363C3A"/>
<path d="M94.4 20.4V17.7C94.4 16.8 94.9 16.2999 95.8 16.2999H96.9C97.8 16.2999 98.3 16.8 98.3 17.7V20.4C98.3 21.3 97.8 21.7999 96.9 21.7999H95.8C94.9 21.7999 94.4 21.3 94.4 20.4ZM95.8 20.4C95.8 20.4999 95.9 20.4999 95.8 20.4L96.8 20.5C96.9 20.5 96.9 20.4999 96.9 20.4V17.6C96.9 17.5 96.9 17.5 96.8 17.5H95.9C95.8 17.5 95.8 17.5 95.8 17.6V20.4ZM99.3 21.7999V20.5H100.5V17.5H99.5V16.7L100.1 16.2H101.9V20.5H102.9V21.7999H99.3ZM103.7 20.4V17.7C103.7 16.8 104.2 16.2999 105.1 16.2999H106.2C107.1 16.2999 107.6 16.8 107.6 17.7V20.4C107.6 21.3 107.1 21.7999 106.2 21.7999H105.1C104.2 21.7999 103.7 21.3 103.7 20.4ZM105.1 20.4C105.1 20.4999 105.1 20.4999 105.1 20.4L106.1 20.5C106.2 20.5 106.2 20.4999 106.2 20.4V17.6C106.2 17.5 106.2 17.5 106.1 17.5H105.2C105.1 17.5 105.1 17.5 105.1 17.6V20.4Z" fill="#363C3A"/>
<path d="M94.7001 34.7999V33.5H95.9001V30.5H94.9001V29.7L95.5001 29.2H97.3001V33.5H98.3001V34.7999H94.7001ZM99.1001 33.4V30.7C99.1001 29.8 99.6001 29.2999 100.5 29.2999H101.6C102.5 29.2999 103 29.8 103 30.7V33.4C103 34.3 102.5 34.7999 101.6 34.7999H100.5C99.5001 34.7999 99.1001 34.3 99.1001 33.4ZM100.4 33.4C100.4 33.5 100.5 33.5 100.4 33.4L101.4 33.5C101.5 33.5 101.5 33.5 101.5 33.4V30.6C101.5 30.5 101.5 30.5 101.4 30.5H100.5C100.4 30.5 100.4 30.5 100.4 30.6V33.4ZM103.9 34.7999V33.5H105.1V30.5H104.1V29.7L104.7 29.2H106.5V33.5H107.5V34.7999H103.9Z" fill="#363C3A"/>
<path d="M94.4 46.4V43.7C94.4 42.8 94.9 42.2999 95.8 42.2999H96.9C97.8 42.2999 98.3 42.8 98.3 43.7V46.4C98.3 47.3 97.8 47.7999 96.9 47.7999H95.8C94.9 47.7999 94.4 47.3 94.4 46.4ZM95.8 46.4C95.8 46.5 95.9 46.5 95.8 46.4L96.8 46.5C96.9 46.5 96.9 46.5 96.9 46.4V43.5999C96.9 43.4999 96.9 43.5 96.8 43.5H95.9C95.8 43.5 95.8 43.4999 95.8 43.5999V46.4ZM99.3 47.7999V46.5H100.5V43.5H99.5V42.7L100.1 42.2H101.9V46.5H102.9V47.7999H99.3ZM103.9 47.7999V46.5H105.1V43.5H104.1V42.7L104.7 42.2H106.5V46.5H107.5V47.7999H103.9Z" fill="#363C3A"/>
<path d="M12.4 20.4V17.7C12.4 16.8 12.9 16.2999 13.8 16.2999H14.9C15.8 16.2999 16.3 16.8 16.3 17.7V20.4C16.3 21.3 15.8 21.7999 14.9 21.7999H13.8C12.9 21.7999 12.4 21.3 12.4 20.4ZM13.8 20.4C13.8 20.4999 13.9 20.4999 13.8 20.4L14.8 20.5C14.9 20.5 14.9 20.4999 14.9 20.4V17.6C14.9 17.5 14.9 17.5 14.8 17.5H13.9C13.8 17.5 13.8 17.5 13.8 17.6V20.4ZM17.3 21.7999V20.5H18.5V17.5H17.5V16.7L18.1 16.2H19.9V20.5H20.9V21.7999H17.3ZM21.7 20.4V17.7C21.7 16.8 22.2 16.2999 23.1 16.2999H24.2C25.1 16.2999 25.6 16.8 25.6 17.7V20.4C25.6 21.3 25.1 21.7999 24.2 21.7999H23.1C22.2 21.7999 21.7 21.3 21.7 20.4ZM23.1 20.4C23.1 20.4999 23.1 20.4999 23.1 20.4L24.1 20.5C24.2 20.5 24.2 20.4999 24.2 20.4V17.6C24.2 17.5 24.2 17.5 24.1 17.5H23.2C23.1 17.5 23.1 17.5 23.1 17.6V20.4Z" fill="#363C3A"/>
<path d="M12.7001 34.7999V33.5H13.9001V30.5H12.9001V29.7L13.5001 29.2H15.3001V33.5H16.3001V34.7999H12.7001ZM17.1001 33.4V30.7C17.1001 29.8 17.6001 29.2999 18.5001 29.2999H19.6001C20.5001 29.2999 21.0001 29.8 21.0001 30.7V33.4C21.0001 34.3 20.5001 34.7999 19.6001 34.7999H18.5001C17.5001 34.7999 17.1001 34.3 17.1001 33.4ZM18.4001 33.4C18.4001 33.5 18.5001 33.5 18.4001 33.4L19.4001 33.5C19.5001 33.5 19.5001 33.5 19.5001 33.4V30.6C19.5001 30.5 19.5001 30.5 19.4001 30.5H18.5001C18.4001 30.5 18.4001 30.5 18.4001 30.6V33.4ZM21.9001 34.7999V33.5H23.1001V30.5H22.1001V29.7L22.7001 29.2H24.5001V33.5H25.5001V34.7999H21.9001Z" fill="#363C3A"/>
<path d="M12.4 46.4V43.7C12.4 42.8 12.9 42.2999 13.8 42.2999H14.9C15.8 42.2999 16.3 42.8 16.3 43.7V46.4C16.3 47.3 15.8 47.7999 14.9 47.7999H13.8C12.9 47.7999 12.4 47.3 12.4 46.4ZM13.8 46.4C13.8 46.5 13.9 46.5 13.8 46.4L14.8 46.5C14.9 46.5 14.9 46.5 14.9 46.4V43.5999C14.9 43.4999 14.9 43.5 14.8 43.5H13.9C13.8 43.5 13.8 43.4999 13.8 43.5999V46.4ZM17.3 47.7999V46.5H18.5V43.5H17.5V42.7L18.1 42.2H19.9V46.5H20.9V47.7999H17.3ZM21.9 47.7999V46.5H23.1V43.5H22.1V42.7L22.7 42.2H24.5V46.5H25.5V47.7999H21.9Z" fill="#363C3A"/>
<path d="M60.1 42.9999C56.7 42.9999 54 40.2999 54 36.8999C54 33.4999 56.7 30.7999 60.1 30.7999C63.5 30.7999 66.2 33.4999 66.2 36.8999C66.2 40.2999 63.4 42.9999 60.1 42.9999ZM60.1 31.7999C57.3 31.7999 55 34.0999 55 36.8999C55 39.6999 57.3 41.9999 60.1 41.9999C62.9 41.9999 65.2 39.6999 65.2 36.8999C65.2 34.0999 62.9 31.7999 60.1 31.7999Z" fill="#009966"/>
<path d="M67.3 30.3999V25.1999C67.3 21.0999 64.1 17.7999 60.2 17.7999C56.3 17.7999 53.1 21.0999 53.1 25.1999V30.3999C51.5 32.0999 50.4 34.4999 50.4 37.0999C50.4 42.4999 54.8 46.7999 60.1 46.7999C65.4 46.7999 70 42.3999 70 36.9999C70 34.3999 69 32.0999 67.3 30.3999ZM60.2 19.7999C63 19.7999 65.3 22.1999 65.3 25.1999V28.7999C63.8 27.8999 62.1 27.3999 60.2 27.3999C58.3 27.3999 56.6 27.8999 55.1 28.7999V25.1999C55.2 22.1999 57.4 19.7999 60.2 19.7999ZM60.2 44.7999C55.9 44.7999 52.5 41.2999 52.5 37.0999C52.5 32.8999 56 29.3999 60.2 29.3999C64.4 29.3999 68 32.7999 68 36.9999C68 41.1999 64.5 44.7999 60.2 44.7999Z" fill="#009966"/>
<path d="M60.1001 36.9C60.5971 36.9 61.0001 36.497 61.0001 36C61.0001 35.5029 60.5971 35.1 60.1001 35.1C59.603 35.1 59.2001 35.5029 59.2001 36C59.2001 36.497 59.603 36.9 60.1001 36.9Z" fill="#363C3A"/>
<path d="M60.1 38.7C59.8 38.7 59.6 38.5 59.6 38.2V36C59.6 35.7 59.8 35.5 60.1 35.5C60.4 35.5 60.6 35.7 60.6 36V38.2C60.6 38.5 60.4 38.7 60.1 38.7Z" fill="#363C3A"/>
<path d="M87.5 44.7999H81.8C81.2 44.7999 80.8 44.3999 80.8 43.7999V33.7999H74.5C73.9 33.7999 73.5 33.3999 73.5 32.7999C73.5 32.1999 73.9 31.7999 74.5 31.7999H80.8V21.7999C80.8 21.1999 81.2 20.7999 81.8 20.7999H87.5C88.1 20.7999 88.5 21.1999 88.5 21.7999C88.5 22.3999 88.1 22.7999 87.5 22.7999H82.8V31.7999H87.5C88.1 31.7999 88.5 32.1999 88.5 32.7999C88.5 33.3999 88.1 33.7999 87.5 33.7999H82.8V42.7999H87.5C88.1 42.7999 88.5 43.1999 88.5 43.7999C88.5 44.3999 88.1 44.7999 87.5 44.7999Z" fill="#B7B7B7"/>
<path d="M39.2 44.7999H33.5C32.9 44.7999 32.5 44.3999 32.5 43.7999C32.5 43.1999 32.9 42.7999 33.5 42.7999H38.2V33.7999H33.5C32.9 33.7999 32.5 33.3999 32.5 32.7999C32.5 32.1999 32.9 31.7999 33.5 31.7999H38.2V22.7999H33.5C32.9 22.7999 32.5 22.3999 32.5 21.7999C32.5 21.1999 32.9 20.7999 33.5 20.7999H39.2C39.8 20.7999 40.2 21.1999 40.2 21.7999V31.7999H46.5C47.1 31.7999 47.5 32.1999 47.5 32.7999C47.5 33.3999 47.1 33.7999 46.5 33.7999H40.2V43.7999C40.2 44.2999 39.8 44.7999 39.2 44.7999Z" fill="#B7B7B7"/>
</svg>
