<svg width="120" height="82" viewBox="0 0 120 82" fill="none" xmlns="http://www.w3.org/2000/svg">
<path d="M116 0H4C1.8 0 0 1.8 0 4V62V64V72C0 74.2 1.8 76 4 76H116C118.2 76 120 74.2 120 72V64V62V4C120 1.8 118.2 0 116 0ZM118 72C118 73.1 117.1 74 116 74H4C2.9 74 2 73.1 2 72V64H118V72ZM2 62V4C2 2.9 2.9 2 4 2H116C117.1 2 118 2.9 118 4V62H2Z" fill="#363C3A"/>
<path d="M63 70H56C55.4 70 55 69.6 55 69C55 68.4 55.4 68 56 68H63C63.6 68 64 68.4 64 69C64 69.6 63.6 70 63 70Z" fill="#363C3A"/>
<path d="M116 60H4V5C4 4.4 4.4 4 5 4H115C115.6 4 116 4.4 116 5V60ZM5 59H115V5H5V59ZM5 4.5V5V4.5Z" fill="#363C3A"/>
<path d="M75 82H45C44.4 82 44 81.6 44 81C44 80.4 44.4 80 45 80H75C75.6 80 76 80.4 76 81C76 81.6 75.6 82 75 82Z" fill="#363C3A"/>
<path d="M104 55H72C71.4 55 71 54.6 71 54C71 53.4 71.4 53 72 53H104C104.6 53 105 53.4 105 54C105 54.6 104.6 55 104 55Z" fill="#B7B7B7"/>
<path d="M104 50H72C71.4 50 71 49.6 71 49C71 48.4 71.4 48 72 48H104C104.6 48 105 48.4 105 49C105 49.6 104.6 50 104 50Z" fill="#B7B7B7"/>
<path d="M41 28H15C14.4 28 14 27.6 14 27C14 26.4 14.4 26 15 26H41C41.6 26 42 26.4 42 27C42 27.6 41.6 28 41 28Z" fill="#B7B7B7"/>
<path d="M41 33H15C14.4 33 14 32.6 14 32C14 31.4 14.4 31 15 31H41C41.6 31 42 31.4 42 32C42 32.6 41.6 33 41 33Z" fill="#B7B7B7"/>
<path d="M26 23H15C14.4 23 14 22.6 14 22C14 21.4 14.4 21 15 21H26C26.6 21 27 21.4 27 22C27 22.6 26.6 23 26 23Z" fill="#B7B7B7"/>
<path d="M35 55H15V42H22.8L25 43.9H35V55ZM17 53H33V45.9H24.3L22.1 44H17V53Z" fill="#B7B7B7"/>
<path d="M60 55H40V42H47.8L50 43.9H60V55ZM42 53H58V45.9H49.3L47.1 44H42V53Z" fill="#B7B7B7"/>
<path d="M90 11C92.3 11 94.6 11.6 96.6 12.7L94.6 15C93.2 14.3 91.6 14 90 14C88.2 14 86.4 14.4 84.9 15.3L82.9 13C85 11.7 87.4 11 90 11ZM90 9C86.2 9 82.7 10.3 79.9 12.6L84.5 17.9C86 16.7 87.9 16 90 16C91.8 16 93.6 16.6 95 17.5L99.7 12.2C97 10.2 93.6 9 90 9Z" fill="#009966"/>
<path d="M100.5 15.8C102.1 17.6 103.2 19.8 103.6 22.1H100.5C100.1 20.6 99.4 19.3 98.4 18.1L100.5 15.8ZM100.4 12.9L95.8 18.1C97.5 19.6 98.7 21.7 99 24L106 24.1C105.7 19.6 103.6 15.6 100.4 12.9Z" fill="#363C3A"/>
<path d="M79.1 16.2L81.1 18.5C79.7 20.4 79 22.7 79 25C79 31.1 83.9 36 90 36C95.3 36 99.8 32.2 100.8 27.1H103.8C102.8 33.8 97 39 90 39C82.3 39 76 32.7 76 25C76 21.8 77.1 18.7 79.1 16.2ZM79.2 13.3C76 16.2 74 20.4 74 25C74 33.8 81.2 41 90 41C98.8 41 105.9 33.9 106 25.1L99 25C99 29.9 94.9 33.9 90 33.9C85 33.9 81 29.9 81 24.9C81 22.4 82 20.1 83.7 18.5L79.2 13.3Z" fill="#363C3A"/>
</svg>
