<?xml version="1.0" standalone="no"?>
<!DOCTYPE svg PUBLIC "-//W3C//DTD SVG 20010904//EN"
 "http://www.w3.org/TR/2001/REC-SVG-20010904/DTD/svg10.dtd">
<svg version="1.0" xmlns="http://www.w3.org/2000/svg"
 width="800.000000pt" height="800.000000pt" viewBox="0 0 800.000000 800.000000"
 preserveAspectRatio="xMidYMid meet">
<metadata>
Created by potrace 1.11, written by Peter Selinger 2001-2013
</metadata>
<g transform="translate(0.000000,800.000000) scale(0.100000,-0.100000)"
fill="#000000" stroke="none">
<path d="M3308 7815 c-2 -2 -41 -6 -88 -9 -125 -8 -204 -17 -275 -30 -11 -2
-42 -7 -68 -10 -27 -4 -59 -9 -70 -12 -12 -2 -38 -7 -57 -10 -19 -3 -37 -7
-40 -9 -3 -2 -25 -6 -50 -10 -24 -4 -53 -11 -63 -17 -10 -5 -21 -7 -24 -5 -2
3 -29 -3 -59 -13 -30 -11 -54 -17 -54 -14 0 3 -8 0 -18 -5 -11 -6 -30 -12 -43
-15 -25 -5 -224 -75 -274 -96 -16 -8 -32 -14 -35 -15 -19 -6 -128 -61 -188
-95 -85 -48 -100 -59 -168 -125 -66 -64 -82 -111 -54 -165 25 -49 80 -96 149
-126 31 -14 64 -30 75 -36 10 -5 26 -11 35 -13 9 -2 53 -13 99 -25 l82 -21 53
43 c28 23 54 45 57 48 4 4 133 105 175 137 102 78 253 179 386 258 45 26 183
96 174 87 -5 -5 -41 -35 -80 -67 -38 -32 -74 -63 -80 -69 -5 -6 -23 -21 -39
-34 -103 -79 -463 -419 -453 -428 33 -32 799 -38 1002 -9 17 3 50 7 75 9 68 7
142 16 172 22 15 3 41 7 58 9 74 10 117 17 150 25 19 5 51 11 70 14 45 7 53 9
185 41 125 30 125 30 145 37 8 3 60 20 115 38 55 18 128 46 163 61 34 15 62
26 62 23 0 -2 22 10 49 26 26 17 53 30 60 30 6 0 11 4 11 9 0 5 8 12 19 16 26
8 111 94 123 124 25 60 19 83 -29 130 -55 52 -206 126 -338 166 -49 15 -97 29
-105 32 -8 4 -20 7 -26 8 -7 2 -45 11 -85 20 -41 10 -87 19 -104 21 -16 2 -57
9 -90 15 -33 6 -76 13 -95 15 -19 2 -60 6 -90 9 -60 6 -497 15 -502 10z"/>
<path d="M5196 6765 c-4 -14 -13 -33 -21 -43 -7 -9 -25 -31 -40 -49 -14 -18
-54 -53 -88 -78 -34 -25 -67 -49 -73 -54 -6 -5 -49 -29 -95 -53 -137 -73 -326
-146 -512 -198 -76 -21 -94 -25 -146 -36 -14 -3 -28 -7 -32 -9 -4 -3 -24 -7
-44 -11 -43 -6 -60 -10 -95 -18 -45 -10 -83 -17 -183 -31 -23 -3 -53 -8 -67
-10 -14 -2 -45 -7 -70 -10 -25 -3 -63 -8 -85 -11 -217 -32 -930 -37 -1220 -9
-22 2 -74 7 -115 10 -112 10 -194 20 -288 35 -34 6 -81 13 -105 16 -23 3 -49
8 -57 11 -8 3 -30 7 -48 9 -28 3 -35 -2 -55 -34 -12 -21 -27 -47 -34 -57 -16
-27 -93 -175 -93 -179 0 -4 123 -33 177 -42 15 -2 51 -9 78 -14 28 -5 64 -12
80 -14 17 -3 44 -7 60 -10 60 -9 181 -26 230 -32 28 -3 61 -7 75 -8 14 -2 54
-7 90 -10 36 -3 79 -8 97 -11 18 -2 81 -7 140 -10 59 -4 131 -9 158 -11 28 -2
110 -6 183 -8 73 -2 135 -6 138 -9 4 -3 16 -2 29 3 13 5 25 6 29 3 15 -15 621
1 881 23 33 3 85 7 115 9 30 2 78 7 105 10 28 3 66 8 85 10 57 5 248 30 315
41 17 3 44 7 60 10 17 2 41 7 55 9 14 3 36 8 50 10 14 3 39 7 55 9 17 3 53 10
80 16 28 7 61 14 75 16 14 3 43 10 65 15 22 5 51 12 65 15 14 3 72 19 130 35
58 17 110 31 115 32 6 2 16 6 23 10 6 5 12 6 12 2 0 -3 9 -1 21 5 11 6 30 13
42 15 12 3 31 9 42 14 11 6 56 24 100 42 208 80 357 195 366 279 5 52 -12 89
-63 135 -28 25 -55 45 -60 45 -5 0 -24 10 -41 22 -18 13 -32 21 -32 20 0 -2
-13 2 -30 8 -16 7 -39 16 -50 21 -22 9 -56 18 -67 19 -4 1 -26 7 -49 15 -23 9
-51 17 -63 20 -40 8 -61 13 -101 23 -22 6 -53 13 -70 16 -16 3 -57 10 -90 16
-128 23 -132 23 -139 -5z"/>
<path d="M922 6587 c-233 -114 -246 -232 -42 -366 30 -19 57 -36 60 -36 3 -1
25 -12 50 -25 51 -27 104 -48 235 -93 50 -16 98 -34 107 -38 14 -7 33 16 107
128 50 75 89 138 87 140 -2 2 -12 5 -23 7 -10 2 -36 11 -56 20 -21 8 -39 15
-42 16 -48 7 -238 105 -281 145 -6 6 -26 24 -45 40 -19 17 -41 45 -48 63 -8
18 -16 34 -20 36 -3 2 -43 -14 -89 -37z"/>
<path d="M5699 5636 c0 0 -3 -14 -5 -31 -23 -141 -306 -307 -741 -434 -77 -23
-150 -44 -162 -46 -45 -10 -57 -13 -96 -23 -22 -6 -52 -14 -67 -17 -16 -3 -40
-8 -55 -11 -16 -3 -39 -7 -53 -9 -14 -2 -25 -5 -25 -6 0 -1 -9 -3 -65 -12 -42
-7 -114 -19 -135 -23 -11 -3 -36 -6 -55 -9 -19 -3 -45 -7 -57 -9 -12 -3 -53
-8 -90 -11 -37 -4 -70 -9 -73 -10 -7 -4 -150 -19 -187 -20 -18 0 -33 -2 -33
-5 0 -3 -19 -5 -43 -6 -23 0 -82 -4 -132 -8 -190 -17 -486 -28 -755 -28 -207
0 -494 7 -645 17 -76 4 -226 16 -260 20 -16 2 -59 6 -95 9 -36 4 -76 9 -90 11
-14 2 -43 6 -65 10 -22 3 -53 7 -70 9 -26 4 -77 12 -199 33 -16 2 -39 8 -50
12 -56 19 -67 6 -80 -97 -4 -26 -8 -58 -11 -72 -15 -86 -15 -99 3 -104 16 -5
195 -42 252 -52 14 -2 34 -6 46 -9 12 -3 39 -7 60 -10 21 -3 48 -8 60 -10 12
-3 39 -7 60 -10 21 -3 65 -11 97 -16 33 -6 73 -12 90 -14 18 -2 48 -6 67 -9
37 -6 85 -11 185 -21 33 -3 74 -8 90 -10 57 -8 242 -25 330 -31 47 -2 199 -11
345 -20 92 -5 715 -5 835 0 145 6 302 15 365 21 30 2 87 7 125 10 39 3 86 8
105 10 19 3 62 8 95 11 89 8 165 18 245 29 14 2 45 7 70 10 25 3 56 8 70 10
14 2 43 6 65 10 23 3 52 8 65 10 14 3 40 8 59 11 18 3 43 8 55 10 11 2 37 7
56 10 19 3 43 7 52 10 10 3 30 7 45 10 79 13 361 79 446 105 37 12 73 22 80
23 50 9 295 95 397 139 14 5 27 11 30 12 3 0 37 16 75 34 188 90 301 195 287
267 -11 59 -130 141 -272 188 -62 20 -180 54 -210 60 -14 3 -56 12 -95 21 -76
18 -88 20 -155 30 -25 4 -75 13 -112 20 -38 7 -68 12 -69 11z"/>
<path d="M470 5476 c-121 -46 -172 -72 -219 -112 -70 -60 -72 -122 -6 -188 63
-63 226 -153 395 -217 19 -8 37 -14 40 -15 6 -1 34 -12 65 -24 38 -15 155 -50
169 -50 9 0 18 22 25 65 6 35 20 99 31 142 10 42 18 78 17 78 -1 1 -54 27
-118 58 -164 81 -240 152 -287 270 -7 15 -15 27 -19 26 -5 -1 -46 -16 -93 -33z"/>
<path d="M5921 4301 c-35 -39 -139 -111 -159 -111 -7 0 -12 -4 -12 -9 0 -20
-339 -140 -470 -167 -14 -3 -41 -9 -60 -14 -19 -5 -46 -11 -60 -14 -14 -3 -34
-7 -45 -9 -11 -3 -40 -8 -65 -13 -25 -4 -47 -8 -50 -9 -8 -2 -103 -17 -125
-21 -11 -1 -36 -5 -55 -8 -19 -3 -71 -10 -115 -16 -44 -6 -91 -12 -105 -15
-14 -2 -47 -7 -75 -9 -27 -3 -72 -8 -100 -11 -197 -20 -454 -40 -665 -50 -47
-3 -125 -7 -175 -9 -503 -26 -1169 -26 -1550 -1 -188 12 -234 16 -275 21 -25
3 -67 7 -95 10 -27 2 -63 6 -80 8 -16 3 -59 8 -95 11 -36 4 -68 9 -71 11 -3 2
-33 6 -65 10 -32 3 -63 7 -69 7 -5 1 -9 -9 -8 -23 10 -117 14 -148 17 -165 2
-12 8 -48 12 -80 4 -33 9 -62 9 -65 16 -59 14 -58 83 -65 37 -4 76 -9 87 -11
36 -7 153 -23 210 -29 22 -2 58 -7 80 -10 22 -3 65 -8 95 -11 30 -3 71 -7 90
-10 38 -4 119 -11 220 -19 36 -2 65 -5 65 -5 0 -2 178 -14 390 -26 61 -4 154
-7 207 -8 54 0 98 -3 98 -6 0 -7 69 -4 76 3 3 3 16 2 28 -2 22 -8 718 -6 911
3 150 6 399 22 495 32 19 2 69 6 110 9 41 3 91 8 110 10 19 3 61 8 93 10 67 6
132 13 167 20 14 2 48 7 75 10 110 14 172 22 217 30 18 3 44 7 58 9 14 2 52 9
85 15 33 6 78 13 100 17 59 9 416 84 425 89 4 2 20 7 36 9 201 37 591 173 705
246 87 56 109 85 103 134 -14 124 -224 226 -639 311 -133 28 -136 27 -174 -14z"/>
<path d="M272 4180 c-130 -45 -194 -79 -239 -128 -116 -123 99 -266 607 -403
58 -16 71 -19 93 -21 9 -1 17 -5 17 -8 0 -3 8 -6 18 -6 26 -2 78 -13 105 -23
38 -15 45 -2 36 64 -5 33 -11 83 -14 110 -3 28 -8 73 -11 100 -3 28 -5 66 -4
86 1 40 4 37 -105 74 -114 39 -234 98 -306 151 -32 24 -65 44 -72 44 -6 0 -63
-18 -125 -40z"/>
<path d="M5729 3263 c-1 -5 -3 -22 -5 -39 -13 -108 -128 -222 -319 -315 -38
-18 -72 -34 -75 -34 -3 -1 -23 -9 -45 -19 -38 -16 -287 -96 -350 -112 -16 -4
-32 -8 -35 -9 -11 -3 -66 -16 -85 -19 -11 -3 -54 -12 -95 -21 -41 -9 -88 -18
-105 -21 -38 -5 -83 -12 -114 -18 -12 -3 -42 -8 -65 -10 -22 -3 -52 -8 -66
-10 -22 -4 -50 -7 -170 -21 -107 -12 -255 -25 -345 -30 -33 -2 -60 -4 -60 -5
0 -5 -491 -23 -550 -20 -22 1 -47 2 -55 1 -12 -1 -117 -1 -175 -1 -5 1 -32 0
-60 -1 -87 -2 -443 14 -550 25 -33 3 -87 8 -120 11 -33 2 -76 7 -95 10 -19 2
-57 7 -85 10 -88 9 -139 16 -165 21 -14 2 -34 6 -45 8 -11 2 -42 7 -69 10 -27
4 -53 9 -57 12 -4 2 -20 6 -36 8 -59 8 -109 18 -142 26 -19 5 -37 7 -40 5 -5
-6 58 -177 100 -272 29 -65 32 -67 109 -77 19 -2 69 -9 110 -15 98 -14 167
-22 210 -26 48 -4 137 -15 183 -21 21 -3 64 -7 95 -9 31 -2 84 -6 117 -9 33
-4 94 -9 135 -12 41 -2 109 -7 150 -10 176 -12 288 -15 691 -19 234 -1 443 0
465 4 21 4 51 4 66 0 15 -4 30 -4 33 -1 3 4 32 7 63 8 71 2 217 12 297 19 33
3 83 8 110 10 79 6 167 15 200 20 17 2 53 7 80 10 103 12 251 33 295 41 14 3
43 7 65 10 22 3 56 9 75 14 19 5 51 11 70 14 49 8 87 15 140 27 25 6 54 12 65
15 146 28 480 124 595 171 8 4 17 7 20 8 59 22 91 37 176 81 56 28 112 60 124
70 63 51 110 98 110 110 0 8 4 14 8 14 16 0 13 81 -4 116 -15 30 -100 107
-122 110 -4 0 -27 10 -52 22 -49 23 -223 74 -310 91 -30 6 -66 14 -80 16 -14
3 -41 8 -60 11 -19 2 -46 7 -60 9 -73 13 -90 15 -91 8z"/>
<path d="M545 3061 c-85 -31 -168 -77 -207 -116 -21 -21 -35 -41 -33 -46 3 -4
1 -10 -5 -14 -7 -4 -7 -12 0 -24 5 -10 7 -20 5 -23 -3 -2 12 -22 33 -44 49
-53 141 -108 260 -155 12 -5 32 -13 45 -18 32 -14 206 -72 226 -76 10 -2 49
-12 87 -23 61 -18 113 -31 247 -61 36 -9 37 -8 31 12 -4 12 -13 34 -20 49 -8
15 -14 30 -14 33 0 3 -7 21 -15 41 -8 20 -15 42 -15 49 0 6 -3 15 -7 19 -5 4
-21 46 -38 93 l-30 85 -85 34 c-47 18 -91 33 -97 34 -7 0 -13 5 -13 10 0 6 -6
10 -13 10 -16 0 -177 85 -232 123 -46 31 -44 31 -110 8z"/>
<path d="M5874 2220 c6 -63 -14 -110 -70 -165 -70 -69 -73 -71 -178 -121 -99
-47 -203 -83 -346 -120 -40 -11 -199 -45 -225 -49 -16 -2 -46 -7 -65 -11 -45
-9 -52 -9 -130 0 -100 13 -126 15 -250 21 -209 11 -333 8 -490 -10 -22 -2
-105 -17 -165 -29 -47 -9 -184 -46 -223 -60 -23 -8 -42 -13 -42 -11 0 2 -15
-2 -32 -9 -26 -11 -104 -13 -363 -10 -418 4 -659 15 -855 39 -30 4 -75 8 -100
10 -25 1 -54 5 -65 8 -11 3 -45 8 -76 12 -31 3 -67 8 -80 11 -49 10 -109 15
-109 9 0 -8 44 -69 53 -73 4 -2 7 -8 7 -13 0 -10 48 -79 128 -184 90 -117 109
-135 145 -136 17 0 41 -2 52 -5 11 -2 40 -6 65 -9 25 -3 55 -8 67 -10 12 -3
46 -8 75 -10 95 -10 143 -15 163 -19 11 -3 31 -5 45 -5 19 -1 9 -10 -49 -46
-40 -25 -75 -45 -77 -45 -3 0 -14 -9 -26 -20 -12 -11 -28 -20 -35 -20 -7 0
-13 -4 -13 -10 0 -5 -5 -10 -10 -10 -6 0 -16 -5 -23 -10 -7 -6 -48 -37 -92
-68 -98 -71 -168 -139 -193 -188 -16 -30 -17 -45 -10 -87 6 -31 18 -57 31 -69
19 -15 141 -81 157 -84 3 0 43 -12 90 -27 74 -23 168 -46 250 -61 14 -3 34 -7
45 -9 11 -3 40 -8 65 -11 25 -3 56 -8 70 -11 22 -4 66 -9 180 -21 226 -23 610
-23 803 1 20 3 56 7 80 10 40 5 85 13 215 35 31 5 72 14 90 19 18 5 35 10 37
10 3 1 6 1 8 2 1 0 13 2 27 5 44 8 235 66 245 75 5 5 16 9 24 9 29 0 162 73
187 102 30 37 30 40 -6 82 -31 35 -134 80 -209 92 -20 3 -39 8 -42 10 -4 2
-24 6 -45 9 -22 3 -50 7 -64 10 -14 3 -50 8 -80 11 -30 3 -75 7 -100 9 -262
26 -760 35 -1050 21 -211 -11 -263 -14 -295 -20 -16 -3 -24 -2 -19 3 9 8 253
99 284 106 8 2 35 11 60 20 53 19 34 14 230 65 85 23 172 43 194 45 21 2 46 7
55 9 19 6 72 13 156 23 33 3 173 6 310 6 225 0 291 -3 405 -18 19 -2 53 -7 75
-10 23 -3 52 -8 65 -11 14 -2 39 -7 55 -9 17 -3 41 -7 55 -11 14 -3 41 -9 60
-14 97 -22 276 -78 355 -110 11 -4 58 -23 105 -41 47 -18 146 -62 220 -97 74
-36 137 -66 140 -67 3 0 21 -9 40 -19 19 -11 69 -37 110 -59 41 -21 81 -44 88
-49 6 -6 12 -7 12 -2 0 5 4 4 8 -2 4 -5 23 -18 42 -28 19 -9 44 -23 55 -29 11
-7 56 -32 100 -56 76 -42 101 -56 178 -99 17 -11 59 -34 92 -53 33 -18 62 -37
63 -41 2 -4 8 -8 12 -8 7 0 152 -83 373 -214 30 -18 61 -19 515 -21 265 -1
482 0 482 1 0 2 -15 11 -32 20 -18 9 -35 20 -38 23 -6 8 -202 132 -230 146
-11 5 -20 13 -20 17 0 5 -4 8 -9 8 -5 0 -59 32 -120 70 -60 39 -114 70 -120
70 -5 0 -11 3 -13 8 -1 4 -55 38 -118 77 -63 38 -116 73 -118 77 -2 4 -8 8
-13 8 -7 0 -166 92 -379 220 -8 5 -71 41 -140 81 -69 40 -127 75 -130 79 -3 3
-27 16 -55 30 -27 14 -51 28 -53 33 -2 4 -8 7 -14 7 -5 0 -23 9 -39 21 -16 11
-29 17 -29 13 0 -4 -8 0 -17 8 -10 8 -54 35 -98 58 -200 107 -287 153 -387
202 -60 29 -108 56 -108 59 0 4 14 11 31 14 18 4 48 14 68 23 20 9 38 16 41
17 50 11 269 117 333 162 117 81 160 136 163 210 4 95 -52 163 -191 232 -78
39 -220 91 -250 91 -11 0 -14 -10 -11 -40z"/>
<path d="M1068 2105 c-115 -61 -184 -138 -173 -195 10 -51 20 -68 70 -115 119
-113 372 -227 708 -319 70 -20 132 -38 137 -41 30 -19 -17 58 -118 193 -9 13
-24 36 -32 50 -66 113 -131 200 -154 206 -44 11 -158 68 -226 113 -76 50 -96
67 -130 108 l-25 31 -57 -31z"/>
</g>
</svg>
