<svg viewBox="0 0 120 82" fill="none" xmlns="http://www.w3.org/2000/svg"><path d="M116 0H4C1.8 0 0 1.8 0 4v68c0 2.2 1.8 4 4 4h112c2.2 0 4-1.8 4-4V4c0-2.2-1.8-4-4-4zm2 72c0 1.1-.9 2-2 2H4c-1.1 0-2-.9-2-2v-8h116v8zM2 62V4c0-1.1.9-2 2-2h112c1.1 0 2 .9 2 2v58H2z" fill="#363C3A"/><path d="M63 70h-7c-.6 0-1-.4-1-1s.4-1 1-1h7c.6 0 1 .4 1 1s-.4 1-1 1zm53-10H4V5c0-.6.4-1 1-1h110c.6 0 1 .4 1 1v55zM5 59h110V5H5v54zm70 23H45c-.6 0-1-.4-1-1s.4-1 1-1h30c.6 0 1 .4 1 1s-.4 1-1 1z" fill="#363C3A"/><path d="M12 50.9c-.6 0-1-.4-1-1V18c0-.6.4-1 1-1s1 .4 1 1v31.9c0 .5-.4 1-1 1z" fill="#B7B7B7"/><path d="M90 42c-9.1 0-16.5-7.4-16.5-16.5 0-8.7 6.8-15.9 15.4-16.5l.1 2c-7.6.5-13.5 6.8-13.5 14.5C75.5 33.5 82 40 90 40c3.4 0 6.8-1.2 9.4-3.4l1.3 1.5c-3 2.5-6.8 3.9-10.7 3.9z" fill="#363C3A"/><path d="M91.1 24.8V9h1c2.9 0 5.6 1 7.8 2.9l.7.6-9.5 12.3zm2-13.8v8l4.7-6.1c-1.4-1.1-3-1.7-4.7-1.9z" fill="#363C3A"/><path d="M102.2 37.2L91.8 25.5l10.4-11.8.8.7c2.9 2.8 4.6 6.8 4.6 11s-1.7 8.2-4.6 11l-.8.8zm-7.8-11.7l7.8 8.8c2.1-2.4 3.3-5.6 3.3-8.8 0-3.3-1.2-6.5-3.3-8.8l-7.8 8.8z" fill="#096"/><path d="M108.5 54h-37c-.6 0-1-.4-1-1s.4-1 1-1h37c.6 0 1 .4 1 1s-.4 1-1 1zm-21.3-5H71.5c-.6 0-1-.4-1-1s.4-1 1-1h15.7c.6 0 1 .4 1 1s-.4 1-1 1zm-27.7 5h-48c-.6 0-1-.4-1-1s.4-1 1-1h48c.6 0 1 .4 1 1s-.4 1-1 1z" fill="#B7B7B7"/><path d="M57 50.4c-10.1 0-14.1-2.7-17.3-4.9-1.7.4-2.9.9-4 1.5-1.6.7-3.2 1.5-6.2 1.9-4.1.5-6.5-.9-8.8-2.2-1.9-1.1-3.6-2.1-6.2-2.1-.3 0-.5-.2-.5-.5s.2-.5.5-.5c2.9 0 4.8 1.1 6.7 2.2 2.3 1.3 4.5 2.5 8.2 2.1 2.8-.3 4.3-1 5.9-1.8 1-.5 2-1 3.3-1.3-1.9-1.3-3.8-2.3-7.1-2.3-4.3 0-5.3-4.2-6.2-7.9v-.1c-1 .5-1.9 1.2-3 2.1-3.4 2.8-5.8 2.8-7.4 2.8h-.4c-.3 0-.5-.2-.5-.5s.2-.5.5-.5h.4c1.4 0 3.6.1 6.8-2.5 1-.8 2.1-1.6 3.3-2.3-.7-2.9-1.6-5.3-4-5.3-1.7 0-2.4.5-3.3 1-.8.5-1.7 1.1-3.2 1.1-.3 0-.5-.2-.5-.5s.2-.5.5-.5c1.3 0 1.9-.4 2.7-.9.9-.6 1.8-1.2 3.8-1.2 3.1 0 4.1 2.8 4.9 5.8 3.3-1.5 7.4-1.6 11.9 2.8 3.4 3.4 6.6 6.2 9.4 8.4 2.6.1 5.8.4 9.8 1 .3 0 .5.3.4.6-.1.3-.3.5-.6.4-3.3-.5-6-.8-8.3-.9 3.6 2.7 6.5 4.2 8.3 4.2.3 0 .5.2.5.5s0 .3-.3.3zm-15.8-5.2c2.6 1.7 5.7 3.5 12 4-1.9-1-4.1-2.4-6.3-4.1-2.5-.1-4.3-.1-5.7.1zm-15-11.3c0 .1.1.2.1.3.9 3.7 1.7 7.2 5.2 7.2 4 0 6.2 1.4 8.5 3 1.4-.3 3.2-.4 5.6-.4-3.1-2.6-6.2-5.4-8.4-7.6-3.6-3.5-7.1-4.3-11-2.5z" fill="#363C3A"/><path d="M51.5 19c-.6 0-1-.4-1-1s.4-1 1-1 1 .4 1 1-.4 1-1 1zm4 0c-.6 0-1-.4-1-1s.4-1 1-1 1 .4 1 1-.4 1-1 1zm4 0c-.6 0-1-.4-1-1s.4-1 1-1 1 .4 1 1-.4 1-1 1zm-8 4c-.6 0-1-.4-1-1s.4-1 1-1 1 .4 1 1-.4 1-1 1zm4 0c-.6 0-1-.4-1-1s.4-1 1-1 1 .4 1 1-.4 1-1 1zm4 0c-.6 0-1-.4-1-1s.4-1 1-1 1 .4 1 1-.4 1-1 1zm-8 4c-.6 0-1-.4-1-1s.4-1 1-1 1 .4 1 1-.4 1-1 1zm4 0c-.6 0-1-.4-1-1s.4-1 1-1 1 .4 1 1-.4 1-1 1zm4 0c-.6 0-1-.4-1-1s.4-1 1-1 1 .4 1 1-.4 1-1 1z" fill="#B7B7B7"/></svg>