<svg width="120" height="82" fill="none" xmlns="http://www.w3.org/2000/svg"><path d="M116 0H4C1.8 0 0 1.8 0 4v68c0 2.2 1.8 4 4 4h112c2.2 0 4-1.8 4-4V4c0-2.2-1.8-4-4-4zm2 72c0 1.1-.9 2-2 2H4c-1.1 0-2-.9-2-2v-8h116v8zM2 62V4c0-1.1.9-2 2-2h112c1.1 0 2 .9 2 2v58H2z" fill="#363C3A"/><path d="M63 70h-7c-.6 0-1-.4-1-1s.4-1 1-1h7c.6 0 1 .4 1 1s-.4 1-1 1zm53-10H4V5c0-.6.4-1 1-1h110c.6 0 1 .4 1 1v55zM5 59h110V5H5v54zm70 23H45c-.6 0-1-.4-1-1s.4-1 1-1h30c.6 0 1 .4 1 1s-.4 1-1 1z" fill="#363C3A"/><path d="M18.5 21.3h-.3c-.5-.2-.8-.7-.6-1.3l3-9.3c.2-.5.7-.8 1.3-.6.5.2.8.7.6 1.3l-3 9.3c-.2.3-.6.6-1 .6zm-3-2c-.2 0-.3 0-.5-.1l-5-2.6c-.3-.2-.5-.5-.5-.9s.2-.7.5-.9l5-2.7c.5-.3 1.1-.1 1.4.4.3.5.1 1.1-.4 1.4l-3.3 1.8 3.3 1.7c.5.3.7.9.4 1.3-.2.4-.5.6-.9.6zm9 0c-.4 0-.7-.2-.9-.5-.3-.5-.1-1.1.4-1.3l3.3-1.7-3.3-1.9c-.5-.3-.7-.9-.4-1.4.3-.5.9-.7 1.4-.4l5 2.7c.3.2.5.5.5.9s-.2.7-.5.9l-5 2.6c-.2.1-.3.1-.5.1zm65 35.7c-1.1 0-2.1-.1-3.2-.3l-.6-.1-1.1-5c-.9-.3-1.7-.6-2.5-1l-4.4 2.8-.6-.4c-1.6-1.1-3.1-2.6-4.5-4.5l-.4-.6 2.9-4.4c-.5-.9-.8-1.7-1-2.5L69 37.9l-.1-.6c-.2-1.1-.3-2.1-.3-3.2s.1-2.1.3-3.2l.1-.6 5-1.1c.3-.9.6-1.7 1-2.5l-2.8-4.4.4-.6c1.3-1.8 2.7-3.3 4.5-4.5l.6-.4 4.4 2.8c.9-.5 1.7-.8 2.5-1l1.1-5.1.6-.1c2.1-.4 4.3-.4 6.4 0l.6.1 1.1 5c.9.3 1.7.6 2.5 1l4.4-2.8.6.4c1.6 1.1 3.1 2.6 4.5 4.5l.4.6-2.9 4.4c.5.9.8 1.7 1 2.5l5.1 1.1.1.6c.2 1.1.3 2.1.3 3.2s-.1 2.1-.3 3.2l-.1.6-5 1.1c-.3.9-.6 1.7-1 2.5l2.8 4.4-.4.6c-1.1 1.6-2.6 3.1-4.5 4.5l-.6.4-4.4-2.9c-.9.5-1.7.8-2.5 1l-1.1 5.1-.6.1c-1.1.3-2.1.4-3.2.4zm-2.2-2.2c1.4.2 2.9.2 4.3 0l1.1-5 .6-.1c1-.2 2-.6 3.2-1.3l.5-.3 4.2 2.7c1.3-1 2.3-2 3.1-3.1l-2.8-4.2.3-.5c.6-.9 1-2 1.3-3.1l.1-.6 5-1.1c.1-.7.2-1.4.2-2.2 0-.8-.1-1.4-.2-2.2l-5-1.1-.1-.6c-.2-1-.6-2-1.3-3.2l-.3-.5 2.7-4.2c-1-1.3-2-2.3-3.1-3.1L97 21.9l-.5-.3c-.9-.6-2-1-3.1-1.3l-.6-.2-1.1-5c-1.4-.2-2.9-.2-4.3 0l-1.1 5-.6.2c-1 .2-2 .6-3.2 1.3l-.5.3-4.2-2.7c-1.2.9-2.2 1.9-3.1 3.1l2.8 4.2-.4.5c-.6.9-1 2-1.3 3.1l-.1.6-5 1.1c-.1.7-.2 1.4-.2 2.2 0 .8.1 1.4.2 2.2l5 1.1.1.6c.2 1 .6 2 1.3 3.2l.3.5-2.7 4.2c1 1.3 2 2.3 3.1 3.1l4.2-2.8.5.3c.9.6 2 1 3.1 1.3l.6.1 1.1 5z" fill="#096"/><path d="M89.7 43.5c-5.5 0-10-4.5-10-10s4.5-10 10-10 10 4.5 10 10-4.5 10-10 10zm0-18c-4.4 0-8 3.6-8 8s3.6 8 8 8 8-3.6 8-8-3.6-8-8-8z" fill="#096"/><path d="M54.5 47h-44c-.6 0-1-.4-1-1s.4-1 1-1h44c.6 0 1 .4 1 1s-.4 1-1 1zm0-5h-44c-.6 0-1-.4-1-1s.4-1 1-1h44c.6 0 1 .4 1 1s-.4 1-1 1zm-16-6h-28c-.6 0-1-.4-1-1s.4-1 1-1h28c.6 0 1 .4 1 1s-.4 1-1 1zm0-5h-28c-.6 0-1-.4-1-1s.4-1 1-1h28c.6 0 1 .4 1 1s-.4 1-1 1z" fill="#B7B7B7"/></svg>