<svg viewBox="0 0 38 40" fill="none" xmlns="http://www.w3.org/2000/svg"><path d="M27 7V1l6 6h-6z" stroke="#096" stroke-width="2" stroke-linecap="square" stroke-linejoin="round"/><path stroke="#096" stroke-width="2" d="M1 13h36v14.359H1z"/><path d="M13.85 16.236c.991 0 1.487.528 1.487 1.584v4.596c0 1.056-.496 1.584-1.488 1.584h-3.084v-7.764h3.084zm-.193 6.372v-4.992a.23.23 0 00-.072-.168.193.193 0 00-.156-.072h-.984v5.472h.984a.193.193 0 00.156-.072.23.23 0 00.072-.168zm7.505-4.908v4.836c0 1.056-.496 1.584-1.488 1.584h-1.596c-.992 0-1.488-.528-1.488-1.584V17.7c0-1.056.495-1.584 1.488-1.584h1.596c.992 0 1.488.528 1.488 1.584zm-1.68 5.028v-5.232a.23.23 0 00-.072-.168.193.193 0 00-.157-.072h-.756a.23.23 0 00-.168.072.254.254 0 00-.06.168v5.232c0 .064.02.12.06.168a.23.23 0 00.168.072h.756a.193.193 0 00.157-.072.23.23 0 00.072-.168zm5.812 0v-1.2h1.596v1.008c0 1.056-.496 1.584-1.488 1.584H23.89c-.992 0-1.488-.528-1.488-1.584V17.7c0-1.056.496-1.584 1.488-1.584h1.512c.992 0 1.488.528 1.488 1.584v.732h-1.596v-.936a.23.23 0 00-.072-.168.193.193 0 00-.156-.072h-.756a.23.23 0 00-.168.072.254.254 0 00-.06.168v5.232c0 .064.02.12.06.168a.23.23 0 00.168.072h.756a.193.193 0 00.156-.072.23.23 0 00.072-.168z" fill="#096"/><path d="M27 1H5v12m28-6v6m0 14v12H5V27" stroke="#096" stroke-width="2"/></svg>