<svg width="120" height="82" fill="none" xmlns="http://www.w3.org/2000/svg"><path d="M116 0H4C1.8 0 0 1.8 0 4v68c0 2.2 1.8 4 4 4h112c2.2 0 4-1.8 4-4V4c0-2.2-1.8-4-4-4zm2 72c0 1.1-.9 2-2 2H4c-1.1 0-2-.9-2-2v-8h116v8zM2 62V4c0-1.1.9-2 2-2h112c1.1 0 2 .9 2 2v58H2z" fill="#363C3A"/><path d="M63 70h-7c-.6 0-1-.4-1-1s.4-1 1-1h7c.6 0 1 .4 1 1s-.4 1-1 1zm53-10H4V5c0-.6.4-1 1-1h110c.6 0 1 .4 1 1v55zM5 59h110V5H5v54zM5 4.5V5v-.5zM75 82H45c-.6 0-1-.4-1-1s.4-1 1-1h30c.6 0 1 .4 1 1s-.4 1-1 1z" fill="#363C3A"/><path d="M95.7 22.9c2.5 0 4.5-1.9 4.5-4.2 0-2.3-2-4.2-4.5-4.2h-2.1c-.6 0-1 .4-1 1V21h-.8c-.6 0-1 .4-1 1s.4 1 1 1h.8v.8h-.8c-.6 0-1 .4-1 1s.4 1 1 1h.8v.8c0 .6.4 1 1 1s1-.4 1-1v-.8H96c.6 0 1-.4 1-1s-.4-1-1-1h-1.3V23h1v-.1zm-1-6.4h1.1c1.4 0 2.5 1 2.5 2.2 0 1.2-1.1 2.2-2.5 2.2h-1.1v-4.4z" fill="#096"/><path d="M47.5 27h-34c-.6 0-1-.4-1-1s.4-1 1-1h34c.6 0 1 .4 1 1s-.4 1-1 1zm0 5h-34c-.6 0-1-.4-1-1s.4-1 1-1h34c.6 0 1 .4 1 1s-.4 1-1 1zM28 22H13.5c-.6 0-1-.4-1-1s.4-1 1-1H28c.6 0 1 .4 1 1s-.5 1-1 1zm52.5-1c-6 0-6 1.1-6 14 0 6.2 0 9.6-.6 11-.4.9-.8 1-3.4 1-.6 0-1 .4-1 1s.4 1 1 1c6 0 6-1.1 6-14 0-6.2 0-9.6.6-11 .4-.9.8-1 3.4-1 .6 0 1-.4 1-1s-.4-1-1-1z" fill="#B7B7B7"/><path d="M95.5 33c-6.6 0-12-5.4-12-12s5.4-12 12-12 12 5.4 12 12-5.4 12-12 12zm0-22c-5.5 0-10 4.5-10 10s4.5 10 10 10 10-4.5 10-10-4.5-10-10-10z" fill="#096"/><path d="M29.5 55h-12c-2.2 0-4-1.8-4-4v-6c0-2.2 1.8-4 4-4h12c2.2 0 4 1.8 4 4v6c0 2.2-1.8 4-4 4zm-12-12c-1.1 0-2 .9-2 2v6c0 1.1.9 2 2 2h12c1.1 0 2-.9 2-2v-6c0-1.1-.9-2-2-2h-12zm46 12h-12c-2.2 0-4-1.8-4-4v-6c0-2.2 1.8-4 4-4h12c2.2 0 4 1.8 4 4v6c0 2.2-1.8 4-4 4zm-12-12c-1.1 0-2 .9-2 2v6c0 1.1.9 2 2 2h12c1.1 0 2-.9 2-2v-6c0-1.1-.9-2-2-2h-12zm46 12h-12c-2.2 0-4-1.8-4-4v-6c0-2.2 1.8-4 4-4h12c2.2 0 4 1.8 4 4v6c0 2.2-1.8 4-4 4zm-12-12c-1.1 0-2 .9-2 2v6c0 1.1.9 2 2 2h12c1.1 0 2-.9 2-2v-6c0-1.1-.9-2-2-2h-12z" fill="#363C3A"/></svg>