<svg xmlns="http://www.w3.org/2000/svg" viewBox="0 0 320 300"><rect class="tooltip-horizontal-scroll-icon_card" x="480" width="200" height="200" rx="5" fill="#eee"/><rect class="tooltip-horizontal-scroll-icon_card" width="200" height="200" rx="5" fill="#eee"/><rect class="tooltip-horizontal-scroll-icon_card" x="240" width="200" height="200" rx="5" fill="#eee"/><path d="M78.958 285.7s-41.1-73.2-58.4-104.9c-23-42.2-26.8-60-10.9-68.8 9.9-5.5 23.6-3.2 32 11.4l19.6 31.2V32.3S60.058 0 83.058 0c24.5 0 22.4 32.3 22.4 32.3v59.4s12.9-9.3 28-5.1c7.7 2.1 16.7 5.8 21.5 18 0 0 30.7-14.9 46 16.8 0 0 35.4-7 35.4 29.7s-44.2 134.6-44.2 134.6h-113.2z" fill="#bebebe" style="animation:tooltip-horizontal-scroll-icon_anim-scroll-hand 2s infinite"/><style>@keyframes tooltip-horizontal-scroll-icon_anim-scroll-hand{0%{transform:translateX(80px) scale(1);opacity:0}10%{transform:translateX(80px) scale(1);opacity:1}20%,60%{transform:translateX(175px) scale(.6);opacity:1}80%{transform:translateX(5px) scale(.6);opacity:1}}@keyframes tooltip-horizontal-scroll-icon_anim-scroll-card{0%,60%{transform:translateX(0)}80%{transform:translateX(-240px)}}.tooltip-horizontal-scroll-icon_card{animation:tooltip-horizontal-scroll-icon_anim-scroll-card 2s infinite}</style></svg>