<svg viewBox="0 0 120 82" fill="none" xmlns="http://www.w3.org/2000/svg"><path d="M116 0H4C1.8 0 0 1.8 0 4v68c0 2.2 1.8 4 4 4h112c2.2 0 4-1.8 4-4V4c0-2.2-1.8-4-4-4zm2 72c0 1.1-.9 2-2 2H4c-1.1 0-2-.9-2-2v-8h116v8zM2 62V4c0-1.1.9-2 2-2h112c1.1 0 2 .9 2 2v58H2z" fill="#363C3A"/><path d="M63 70h-7c-.6 0-1-.4-1-1s.4-1 1-1h7c.6 0 1 .4 1 1s-.4 1-1 1zm53-10H4V5c0-.6.4-1 1-1h110c.6 0 1 .4 1 1v55zM5 59h110V5H5v54zm70 23H45c-.6 0-1-.4-1-1s.4-1 1-1h30c.6 0 1 .4 1 1s-.4 1-1 1z" fill="#363C3A"/><path d="M66 54H54c-2.2 0-4-1.8-4-4V38c0-2.2 1.8-4 4-4h12c2.2 0 4 1.8 4 4v12c0 2.2-1.8 4-4 4zM54 36c-1.1 0-2 .9-2 2v12c0 1.1.9 2 2 2h12c1.1 0 2-.9 2-2V38c0-1.1-.9-2-2-2H54z" fill="#096"/><path d="M62 22h-4c-2.2 0-4-1.8-4-4v-4c0-2.2 1.8-4 4-4h4c2.2 0 4 1.8 4 4v4c0 2.2-1.8 4-4 4zm-4-10c-1.1 0-2 .9-2 2v4c0 1.1.9 2 2 2h4c1.1 0 2-.9 2-2v-4c0-1.1-.9-2-2-2h-4zm34 39h-4c-2.2 0-4-1.8-4-4v-4c0-2.2 1.8-4 4-4h4c2.2 0 4 1.8 4 4v4c0 2.2-1.8 4-4 4zm-4-10c-1.1 0-2 .9-2 2v4c0 1.1.9 2 2 2h4c1.1 0 2-.9 2-2v-4c0-1.1-.9-2-2-2h-4zM32 51h-4c-2.2 0-4-1.8-4-4v-4c0-2.2 1.8-4 4-4h4c2.2 0 4 1.8 4 4v4c0 2.2-1.8 4-4 4zm-4-10c-1.1 0-2 .9-2 2v4c0 1.1.9 2 2 2h4c1.1 0 2-.9 2-2v-4c0-1.1-.9-2-2-2h-4z" fill="#363C3A"/><path d="M80 44h-6c-.6 0-1 .4-1 1s.4 1 1 1h6c.6 0 1-.4 1-1s-.4-1-1-1zm-34 0h-6c-.6 0-1 .4-1 1s.4 1 1 1h6c.6 0 1-.4 1-1s-.4-1-1-1zm14-20c-.6 0-1 .4-1 1v6c0 .6.4 1 1 1s1-.4 1-1v-6c0-.6-.4-1-1-1z" fill="#B7B7B7"/></svg>