<svg viewBox="0 0 120 82" fill="none" xmlns="http://www.w3.org/2000/svg"><path d="M116 0H4C1.8 0 0 1.8 0 4v68c0 2.2 1.8 4 4 4h112c2.2 0 4-1.8 4-4V4c0-2.2-1.8-4-4-4zm2 72c0 1.1-.9 2-2 2H4c-1.1 0-2-.9-2-2v-8h116v8zM2 62V4c0-1.1.9-2 2-2h112c1.1 0 2 .9 2 2v58H2z" fill="#363C3A"/><path d="M63 70h-7c-.6 0-1-.4-1-1s.4-1 1-1h7c.6 0 1 .4 1 1s-.4 1-1 1zm53-10H4V5c0-.6.4-1 1-1h110c.6 0 1 .4 1 1v55zM5 59h110V5H5v54zM5 4.5V5v-.5zM75 82H45c-.6 0-1-.4-1-1s.4-1 1-1h30c.6 0 1 .4 1 1s-.4 1-1 1z" fill="#363C3A"/><path d="M73.3 45.2c-.2 0-.3 0-.5-.1-.3-.2-.5-.5-.5-.9V34.1l-17-1c-.5 0-.9-.5-.9-1v-10c0-.5.4-1 .9-1l17-1V10c0-.4.2-.7.5-.9.3-.2.7-.1 1 .1l24.7 17.1c.3.2.4.5.4.8 0 .3-.2.6-.4.8L73.9 45.1c-.2.1-.4.1-.6.1zm-17-14l17 1c.5 0 .9.5.9 1v9.2l22-15.2-22-15.2v9.2c0 .5-.4 1-.9 1l-17 1v8zm-5.2 1.2c-.6 0-1-.4-1-1v-8.6c0-.6.4-1 1-1s1 .4 1 1v8.6c0 .6-.5 1-1 1zm-4.3-1.1c-.6 0-1-.4-1-1v-6.4c0-.6.4-1 1-1s1 .4 1 1v6.4c0 .6-.5 1-1 1z" fill="#096"/><path d="M56.1 47.5c-.6 0-1-.4-1-1v-6.4c0-.6.4-1 1-1s1 .4 1 1v6.4c0 .6-.4 1-1 1zM39.3 55c-.2 0-.4 0-.5-.1L21.5 44.2c-.3-.2-.5-.6-.5-.9 0-.3.2-.7.5-.9l17.3-10.7c.3-.2.7-.2 1 0 .3.2.5.5.5.9v6l11.6.6c.5 0 1 .5 1 1v6.3c0 .5-.4 1-1 1l-11.6.5v6c0 .4-.2.7-.5.9-.2.1-.3.1-.5.1zM23.9 43.3l14.4 8.9v-5.1c0-.5.4-1 1-1l11.6-.6v-4.4l-11.6-.6c-.5 0-1-.5-1-1v-5.1l-14.4 8.9z" fill="#B7B7B7"/></svg>