<svg width="120" height="82" fill="none" xmlns="http://www.w3.org/2000/svg"><path d="M116 0H4C1.8 0 0 1.8 0 4v68c0 2.2 1.8 4 4 4h112c2.2 0 4-1.8 4-4V4c0-2.2-1.8-4-4-4zm2 72c0 1.1-.9 2-2 2H4c-1.1 0-2-.9-2-2v-8h116v8zM2 62V4c0-1.1.9-2 2-2h112c1.1 0 2 .9 2 2v58H2z" fill="#363C3A"/><path d="M63 70h-7c-.6 0-1-.4-1-1s.4-1 1-1h7c.6 0 1 .4 1 1s-.4 1-1 1zm53-10H4V5c0-.6.4-1 1-1h110c.6 0 1 .4 1 1v55zM5 59h110V5H5v54zM5 4.5V5v-.5zM75 82H45c-.6 0-1-.4-1-1s.4-1 1-1h30c.6 0 1 .4 1 1s-.4 1-1 1z" fill="#363C3A"/><path d="M25.8 24.6c-2.7 0-4.9-2.2-4.9-4.9s2.2-4.9 4.9-4.9 4.9 2.2 4.9 4.9-2.2 4.9-4.9 4.9zm0-7.7c-1.6 0-2.9 1.3-2.9 2.9 0 1.6 1.3 2.9 2.9 2.9 1.6 0 2.9-1.3 2.9-2.9 0-1.7-1.3-2.9-2.9-2.9zm7.8 18.5c-.6 0-1-.4-1-1 0-3.8-3.1-6.8-6.8-6.8-3.8 0-6.8 3.1-6.8 6.8 0 .6-.4 1-1 1s-1-.4-1-1c0-4.9 3.9-8.8 8.8-8.8s8.8 3.9 8.8 8.8c0 .5-.4 1-1 1z" fill="#096"/><path d="M54.2 34.4H39.6c-.6 0-1-.4-1-1s.4-1 1-1h14.6c.6 0 1 .4 1 1s-.4 1-1 1zm0-4.9H39.6c-.6 0-1-.4-1-1s.4-1 1-1h14.6c.6 0 1 .4 1 1s-.4 1-1 1zm-5.3-4.9h-9.3c-.6 0-1-.4-1-1s.4-1 1-1h9.3c.6 0 1 .4 1 1s-.4 1-1 1z" fill="#363C3A"/><path d="M59 41H13c-1.1 0-2-.9-2-2V11c0-1.1.9-2 2-2h46c1.1 0 2 .9 2 2v28c0 1.1-.9 2-2 2zM13 11v28h46V11H13z" fill="#363C3A"/><path d="M71.8 21c-.3 0-.7-.2-.8-.5L68.7 17c-.3-.5-.2-1.1.3-1.4.5-.3 1.1-.2 1.4.3l1.3 2 2.5-4.9c.2-.5.8-.7 1.3-.4.5.2.7.8.4 1.3l-3.3 6.5c-.1.4-.4.6-.8.6zm37.2-3H83c-.6 0-1-.4-1-1s.4-1 1-1h26c.6 0 1 .4 1 1s-.4 1-1 1zm0 5H83c-.6 0-1-.4-1-1s.4-1 1-1h26c.6 0 1 .4 1 1s-.4 1-1 1zM94 13H83c-.6 0-1-.4-1-1s.4-1 1-1h11c.6 0 1 .4 1 1s-.4 1-1 1zM71.8 37c-.3 0-.7-.2-.8-.5L68.7 33c-.3-.5-.2-1.1.3-1.4.5-.3 1.1-.2 1.4.3l1.3 2 2.5-4.9c.2-.5.8-.7 1.3-.4.5.2.7.8.4 1.3l-3.3 6.5c-.1.4-.4.6-.8.6zm37.2-3H83c-.6 0-1-.4-1-1s.4-1 1-1h26c.6 0 1 .4 1 1s-.4 1-1 1zm0 5H83c-.6 0-1-.4-1-1s.4-1 1-1h26c.6 0 1 .4 1 1s-.4 1-1 1zM94 29H83c-.6 0-1-.4-1-1s.4-1 1-1h11c.6 0 1 .4 1 1s-.4 1-1 1zM60 54H12c-.6 0-1-.4-1-1s.4-1 1-1h48c.6 0 1 .4 1 1s-.4 1-1 1zm-27.6-6H12c-.6 0-1-.4-1-1s.4-1 1-1h20.4c.6 0 1 .4 1 1s-.4 1-1 1z" fill="#B7B7B7"/></svg>