<svg width="120" height="82" fill="none" xmlns="http://www.w3.org/2000/svg"><path d="M63 70h-7c-.6 0-1-.4-1-1s.4-1 1-1h7c.6 0 1 .4 1 1s-.4 1-1 1zm53-10H4V5c0-.6.4-1 1-1h110c.6 0 1 .4 1 1v55zM5 59h110V5H5v54zm70 23H45c-.6 0-1-.4-1-1s.4-1 1-1h30c.6 0 1 .4 1 1s-.4 1-1 1z" fill="#363C3A"/><path d="M116 0H4C1.8 0 0 1.8 0 4v68c0 2.2 1.8 4 4 4h112c2.2 0 4-1.8 4-4V4c0-2.2-1.8-4-4-4zm2 72c0 1.1-.9 2-2 2H4c-1.1 0-2-.9-2-2v-8h116v8zM2 62V4c0-1.1.9-2 2-2h112c1.1 0 2 .9 2 2v58H2z" fill="#363C3A"/><path d="M94.4 20.4v-2.7c0-.9.5-1.4 1.4-1.4h1.1c.9 0 1.4.5 1.4 1.4v2.7c0 .9-.5 1.4-1.4 1.4h-1.1c-.9 0-1.4-.5-1.4-1.4zm1.4 0c0 .1.1.1 0 0l1 .1c.1 0 .1 0 .1-.1v-2.8c0-.1 0-.1-.1-.1h-.9c-.1 0-.1 0-.1.1v2.8zm3.5 1.4v-1.3h1.2v-3h-1v-.8l.6-.5h1.8v4.3h1v1.3h-3.6zm4.4-1.4v-2.7c0-.9.5-1.4 1.4-1.4h1.1c.9 0 1.4.5 1.4 1.4v2.7c0 .9-.5 1.4-1.4 1.4h-1.1c-.9 0-1.4-.5-1.4-1.4zm1.4 0c0 .1 0 .1 0 0l1 .1c.1 0 .1 0 .1-.1v-2.8c0-.1 0-.1-.1-.1h-.9c-.1 0-.1 0-.1.1v2.8zM94.7 34.8v-1.3h1.2v-3h-1v-.8l.6-.5h1.8v4.3h1v1.3h-3.6zm4.4-1.4v-2.7c0-.9.5-1.4 1.4-1.4h1.1c.9 0 1.4.5 1.4 1.4v2.7c0 .9-.5 1.4-1.4 1.4h-1.1c-1 0-1.4-.5-1.4-1.4zm1.3 0c0 .1.1.1 0 0l1 .1c.1 0 .1 0 .1-.1v-2.8c0-.1 0-.1-.1-.1h-.9c-.1 0-.1 0-.1.1v2.8zm3.5 1.4v-1.3h1.2v-3h-1v-.8l.6-.5h1.8v4.3h1v1.3h-3.6zm-9.5 11.6v-2.7c0-.9.5-1.4 1.4-1.4h1.1c.9 0 1.4.5 1.4 1.4v2.7c0 .9-.5 1.4-1.4 1.4h-1.1c-.9 0-1.4-.5-1.4-1.4zm1.4 0c0 .1.1.1 0 0l1 .1c.1 0 .1 0 .1-.1v-2.8c0-.1 0-.1-.1-.1h-.9c-.1 0-.1 0-.1.1v2.8zm3.5 1.4v-1.3h1.2v-3h-1v-.8l.6-.5h1.8v4.3h1v1.3h-3.6zm4.6 0v-1.3h1.2v-3h-1v-.8l.6-.5h1.8v4.3h1v1.3h-3.6zM12.4 20.4v-2.7c0-.9.5-1.4 1.4-1.4h1.1c.9 0 1.4.5 1.4 1.4v2.7c0 .9-.5 1.4-1.4 1.4h-1.1c-.9 0-1.4-.5-1.4-1.4zm1.4 0c0 .1.1.1 0 0l1 .1c.1 0 .1 0 .1-.1v-2.8c0-.1 0-.1-.1-.1h-.9c-.1 0-.1 0-.1.1v2.8zm3.5 1.4v-1.3h1.2v-3h-1v-.8l.6-.5h1.8v4.3h1v1.3h-3.6zm4.4-1.4v-2.7c0-.9.5-1.4 1.4-1.4h1.1c.9 0 1.4.5 1.4 1.4v2.7c0 .9-.5 1.4-1.4 1.4h-1.1c-.9 0-1.4-.5-1.4-1.4zm1.4 0c0 .1 0 .1 0 0l1 .1c.1 0 .1 0 .1-.1v-2.8c0-.1 0-.1-.1-.1h-.9c-.1 0-.1 0-.1.1v2.8zM12.7 34.8v-1.3h1.2v-3h-1v-.8l.6-.5h1.8v4.3h1v1.3h-3.6zm4.4-1.4v-2.7c0-.9.5-1.4 1.4-1.4h1.1c.9 0 1.4.5 1.4 1.4v2.7c0 .9-.5 1.4-1.4 1.4h-1.1c-1 0-1.4-.5-1.4-1.4zm1.3 0c0 .1.1.1 0 0l1 .1c.1 0 .1 0 .1-.1v-2.8c0-.1 0-.1-.1-.1h-.9c-.1 0-.1 0-.1.1v2.8zm3.5 1.4v-1.3h1.2v-3h-1v-.8l.6-.5h1.8v4.3h1v1.3h-3.6zm-9.5 11.6v-2.7c0-.9.5-1.4 1.4-1.4h1.1c.9 0 1.4.5 1.4 1.4v2.7c0 .9-.5 1.4-1.4 1.4h-1.1c-.9 0-1.4-.5-1.4-1.4zm1.4 0c0 .1.1.1 0 0l1 .1c.1 0 .1 0 .1-.1v-2.8c0-.1 0-.1-.1-.1h-.9c-.1 0-.1 0-.1.1v2.8zm3.5 1.4v-1.3h1.2v-3h-1v-.8l.6-.5h1.8v4.3h1v1.3h-3.6zm4.6 0v-1.3h1.2v-3h-1v-.8l.6-.5h1.8v4.3h1v1.3h-3.6z" fill="#363C3A"/><path d="M60.1 43c-3.4 0-6.1-2.7-6.1-6.1 0-3.4 2.7-6.1 6.1-6.1 3.4 0 6.1 2.7 6.1 6.1 0 3.4-2.8 6.1-6.1 6.1zm0-11.2c-2.8 0-5.1 2.3-5.1 5.1s2.3 5.1 5.1 5.1 5.1-2.3 5.1-5.1-2.3-5.1-5.1-5.1z" fill="#096"/><path d="M67.3 30.4v-5.2c0-4.1-3.2-7.4-7.1-7.4-3.9 0-7.1 3.3-7.1 7.4v5.2c-1.6 1.7-2.7 4.1-2.7 6.7 0 5.4 4.4 9.7 9.7 9.7 5.3 0 9.9-4.4 9.9-9.8 0-2.6-1-4.9-2.7-6.6zm-7.1-10.6c2.8 0 5.1 2.4 5.1 5.4v3.6c-1.5-.9-3.2-1.4-5.1-1.4-1.9 0-3.6.5-5.1 1.4v-3.6c.1-3 2.3-5.4 5.1-5.4zm0 25c-4.3 0-7.7-3.5-7.7-7.7s3.5-7.7 7.7-7.7S68 32.8 68 37c0 4.2-3.5 7.8-7.8 7.8z" fill="#096"/><path d="M60.1 36.9a.9.9 0 100-1.8.9.9 0 000 1.8z" fill="#363C3A"/><path d="M60.1 38.7c-.3 0-.5-.2-.5-.5V36c0-.3.2-.5.5-.5s.5.2.5.5v2.2c0 .3-.2.5-.5.5z" fill="#363C3A"/><path d="M87.5 44.8h-5.7c-.6 0-1-.4-1-1v-10h-6.3c-.6 0-1-.4-1-1s.4-1 1-1h6.3v-10c0-.6.4-1 1-1h5.7c.6 0 1 .4 1 1s-.4 1-1 1h-4.7v9h4.7c.6 0 1 .4 1 1s-.4 1-1 1h-4.7v9h4.7c.6 0 1 .4 1 1s-.4 1-1 1zm-48.3 0h-5.7c-.6 0-1-.4-1-1s.4-1 1-1h4.7v-9h-4.7c-.6 0-1-.4-1-1s.4-1 1-1h4.7v-9h-4.7c-.6 0-1-.4-1-1s.4-1 1-1h5.7c.6 0 1 .4 1 1v10h6.3c.6 0 1 .4 1 1s-.4 1-1 1h-6.3v10c0 .5-.4 1-1 1z" fill="#B7B7B7"/></svg>