<svg width="120" height="82" fill="none" xmlns="http://www.w3.org/2000/svg"><path d="M116 0H4C1.8 0 0 1.8 0 4v68c0 2.2 1.8 4 4 4h112c2.2 0 4-1.8 4-4V4c0-2.2-1.8-4-4-4zm2 72c0 1.1-.9 2-2 2H4c-1.1 0-2-.9-2-2v-8h116v8zM2 62V4c0-1.1.9-2 2-2h112c1.1 0 2 .9 2 2v58H2z" fill="#363C3A"/><path d="M63 70h-7c-.6 0-1-.4-1-1s.4-1 1-1h7c.6 0 1 .4 1 1s-.4 1-1 1zm53-10H4V5c0-.6.4-1 1-1h110c.6 0 1 .4 1 1v55zM5 59h110V5H5v54zM5 4.5V5v-.5zM75 82H45c-.6 0-1-.4-1-1s.4-1 1-1h30c.6 0 1 .4 1 1s-.4 1-1 1z" fill="#363C3A"/><path d="M104 55H72c-.6 0-1-.4-1-1s.4-1 1-1h32c.6 0 1 .4 1 1s-.4 1-1 1zm0-5H72c-.6 0-1-.4-1-1s.4-1 1-1h32c.6 0 1 .4 1 1s-.4 1-1 1zM41 28H15c-.6 0-1-.4-1-1s.4-1 1-1h26c.6 0 1 .4 1 1s-.4 1-1 1zm0 5H15c-.6 0-1-.4-1-1s.4-1 1-1h26c.6 0 1 .4 1 1s-.4 1-1 1zM26 23H15c-.6 0-1-.4-1-1s.4-1 1-1h11c.6 0 1 .4 1 1s-.4 1-1 1zm9 32H15V42h7.8l2.2 1.9h10V55zm-18-2h16v-7.1h-8.7L22.1 44H17v9zm43 2H40V42h7.8l2.2 1.9h10V55zm-18-2h16v-7.1h-8.7L47.1 44H42v9z" fill="#B7B7B7"/><path d="M90 11c2.3 0 4.6.6 6.6 1.7l-2 2.3c-1.4-.7-3-1-4.6-1-1.8 0-3.6.4-5.1 1.3l-2-2.3c2.1-1.3 4.5-2 7.1-2zm0-2c-3.8 0-7.3 1.3-10.1 3.6l4.6 5.3C86 16.7 87.9 16 90 16c1.8 0 3.6.6 5 1.5l4.7-5.3C97 10.2 93.6 9 90 9z" fill="#096"/><path d="M100.5 15.8c1.6 1.8 2.7 4 3.1 6.3h-3.1c-.4-1.5-1.1-2.8-2.1-4l2.1-2.3zm-.1-2.9l-4.6 5.2c1.7 1.5 2.9 3.6 3.2 5.9l7 .1c-.3-4.5-2.4-8.5-5.6-11.2z" fill="#363C3A"/><path d="M79.1 16.2l2 2.3C79.7 20.4 79 22.7 79 25c0 6.1 4.9 11 11 11 5.3 0 9.8-3.8 10.8-8.9h3C102.8 33.8 97 39 90 39c-7.7 0-14-6.3-14-14 0-3.2 1.1-6.3 3.1-8.8zm.1-2.9C76 16.2 74 20.4 74 25c0 8.8 7.2 16 16 16s15.9-7.1 16-15.9l-7-.1c0 4.9-4.1 8.9-9 8.9-5 0-9-4-9-9 0-2.5 1-4.8 2.7-6.4l-4.5-5.2z" fill="#363C3A"/></svg>