<svg version="1.0" xmlns="http://www.w3.org/2000/svg" width="1066.667" height="1066.667" viewBox="0 0 800 800"><path d="M330.8 18.5c-.2.2-4.1.6-8.8.9-12.5.8-20.4 1.7-27.5 3-1.1.2-4.2.7-6.8 1-2.7.4-5.9.9-7 1.2-1.2.2-3.8.7-5.7 1-1.9.3-3.7.7-4 .9-.3.2-2.5.6-5 1-2.4.4-5.3 1.1-6.3 1.7-1 .5-2.1.7-2.4.5-.2-.3-2.9.3-5.9 1.3-3 1.1-5.4 1.7-5.4 1.4 0-.3-.8 0-1.8.5-1.1.6-3 1.2-4.3 1.5-2.5.5-22.4 7.5-27.4 9.6-1.6.8-3.2 1.4-3.5 1.5-1.9.6-12.8 6.1-18.8 9.5-8.5 4.8-10 5.9-16.8 12.5-6.6 6.4-8.2 11.1-5.4 16.5 2.5 4.9 8 9.6 14.9 12.6 3.1 1.4 6.4 3 7.5 3.6 1 .5 2.6 1.1 3.5 1.3.9.2 5.3 1.3 9.9 2.5l8.2 2.1 5.3-4.3c2.8-2.3 5.4-4.5 5.7-4.8.4-.4 13.3-10.5 17.5-13.7 10.2-7.8 25.3-17.9 38.6-25.8 4.5-2.6 18.3-9.6 17.4-8.7-.5.5-4.1 3.5-8 6.7-3.8 3.2-7.4 6.3-8 6.9-.5.6-2.3 2.1-3.9 3.4-10.3 7.9-46.3 41.9-45.3 42.8 3.3 3.2 79.9 3.8 100.2.9 1.7-.3 5-.7 7.5-.9 6.8-.7 14.2-1.6 17.2-2.2 1.5-.3 4.1-.7 5.8-.9 7.4-1 11.7-1.7 15-2.5 1.9-.5 5.1-1.1 7-1.4 4.5-.7 5.3-.9 18.5-4.1 12.5-3 12.5-3 14.5-3.7.8-.3 6-2 11.5-3.8 5.5-1.8 12.8-4.6 16.3-6.1 3.4-1.5 6.2-2.6 6.2-2.3 0 .2 2.2-1 4.9-2.6 2.6-1.7 5.3-3 6-3 .6 0 1.1-.4 1.1-.9s.8-1.2 1.9-1.6c2.6-.8 11.1-9.4 12.3-12.4 2.5-6 1.9-8.3-2.9-13-5.5-5.2-20.6-12.6-33.8-16.6-4.9-1.5-9.7-2.9-10.5-3.2-.8-.4-2-.7-2.6-.8-.7-.2-4.5-1.1-8.5-2-4.1-1-8.7-1.9-10.4-2.1-1.6-.2-5.7-.9-9-1.5s-7.6-1.3-9.5-1.5c-1.9-.2-6-.6-9-.9-6-.6-49.7-1.5-50.2-1zm188.8 105c-.4 1.4-1.3 3.3-2.1 4.3-.7.9-2.5 3.1-4 4.9-1.4 1.8-5.4 5.3-8.8 7.8-3.4 2.5-6.7 4.9-7.3 5.4-.6.5-4.9 2.9-9.5 5.3-13.7 7.3-32.6 14.6-51.2 19.8-7.6 2.1-9.4 2.5-14.6 3.6-1.4.3-2.8.7-3.2.9-.4.3-2.4.7-4.4 1.1-4.3.6-6 1-9.5 1.8-4.5 1-8.3 1.7-18.3 3.1-2.3.3-5.3.8-6.7 1-1.4.2-4.5.7-7 1-2.5.3-6.3.8-8.5 1.1-21.7 3.2-93 3.7-122 .9-2.2-.2-7.4-.7-11.5-1-11.2-1-19.4-2-28.8-3.5-3.4-.6-8.1-1.3-10.5-1.6-2.3-.3-4.9-.8-5.7-1.1-.8-.3-3-.7-4.8-.9-2.8-.3-3.5.2-5.5 3.4-1.2 2.1-2.7 4.7-3.4 5.7-1.6 2.7-9.3 17.5-9.3 17.9 0 .4 12.3 3.3 17.7 4.2 1.5.2 5.1.9 7.8 1.4 2.8.5 6.4 1.2 8 1.4 1.7.3 4.4.7 6 1 6 .9 18.1 2.6 23 3.2 2.8.3 6.1.7 7.5.8 1.4.2 5.4.7 9 1 3.6.3 7.9.8 9.7 1.1 1.8.2 8.1.7 14 1 5.9.4 13.1.9 15.8 1.1 2.8.2 11 .6 18.3.8 7.3.2 13.5.6 13.8.9.4.3 1.6.2 2.9-.3 1.3-.5 2.5-.6 2.9-.3 1.5 1.5 62.1-.1 88.1-2.3 3.3-.3 8.5-.7 11.5-.9 3-.2 7.8-.7 10.5-1 2.8-.3 6.6-.8 8.5-1 5.7-.5 24.8-3 31.5-4.1 1.7-.3 4.4-.7 6-1 1.7-.2 4.1-.7 5.5-.9 1.4-.3 3.6-.8 5-1 1.4-.3 3.9-.7 5.5-.9 1.7-.3 5.3-1 8-1.6 2.8-.7 6.1-1.4 7.5-1.6 1.4-.3 4.3-1 6.5-1.5s5.1-1.2 6.5-1.5c1.4-.3 7.2-1.9 13-3.5 5.8-1.7 11-3.1 11.5-3.2.6-.2 1.6-.6 2.3-1 .6-.5 1.2-.6 1.2-.2 0 .3.9.1 2.1-.5 1.1-.6 3-1.3 4.2-1.5 1.2-.3 3.1-.9 4.2-1.4 1.1-.6 5.6-2.4 10-4.2 20.8-8 35.7-19.5 36.6-27.9.5-5.2-1.2-8.9-6.3-13.5-2.8-2.5-5.5-4.5-6-4.5s-2.4-1-4.1-2.2c-1.8-1.3-3.2-2.1-3.2-2 0 .2-1.3-.2-3-.8-1.6-.7-3.9-1.6-5-2.1-2.2-.9-5.6-1.8-6.7-1.9-.4-.1-2.6-.7-4.9-1.5-2.3-.9-5.1-1.7-6.3-2-4-.8-6.1-1.3-10.1-2.3-2.2-.6-5.3-1.3-7-1.6-1.6-.3-5.7-1-9-1.6-12.8-2.3-13.2-2.3-13.9.5zM92.2 141.3c-23.3 11.4-24.6 23.2-4.2 36.6 3 1.9 5.7 3.6 6 3.6.3.1 2.5 1.2 5 2.5 5.1 2.7 10.4 4.8 23.5 9.3 5 1.6 9.8 3.4 10.7 3.8 1.4.7 3.3-1.6 10.7-12.8 5-7.5 8.9-13.8 8.7-14-.2-.2-1.2-.5-2.3-.7-1-.2-3.6-1.1-5.6-2-2.1-.8-3.9-1.5-4.2-1.6-4.8-.7-23.8-10.5-28.1-14.5-.6-.6-2.6-2.4-4.5-4-1.9-1.7-4.1-4.5-4.8-6.3-.8-1.8-1.6-3.4-2-3.6-.3-.2-4.3 1.4-8.9 3.7zm477.7 95.1s-.3 1.4-.5 3.1c-2.3 14.1-30.6 30.7-74.1 43.4-7.7 2.3-15 4.4-16.2 4.6-4.5 1-5.7 1.3-9.6 2.3-2.2.6-5.2 1.4-6.7 1.7-1.6.3-4 .8-5.5 1.1-1.6.3-3.9.7-5.3.9-1.4.2-2.5.5-2.5.6 0 .1-.9.3-6.5 1.2-4.2.7-11.4 1.9-13.5 2.3-1.1.3-3.6.6-5.5.9-1.9.3-4.5.7-5.7.9-1.2.3-5.3.8-9 1.1-3.7.4-7 .9-7.3 1-.7.4-15 1.9-18.7 2-1.8 0-3.3.2-3.3.5s-1.9.5-4.3.6c-2.3 0-8.2.4-13.2.8-19 1.7-48.6 2.8-75.5 2.8-20.7 0-49.4-.7-64.5-1.7-7.6-.4-22.6-1.6-26-2-1.6-.2-5.9-.6-9.5-.9-3.6-.4-7.6-.9-9-1.1-1.4-.2-4.3-.6-6.5-1-2.2-.3-5.3-.7-7-.9-2.6-.4-7.7-1.2-19.9-3.3-1.6-.2-3.9-.8-5-1.2-5.6-1.9-6.7-.6-8 9.7-.4 2.6-.8 5.8-1.1 7.2-1.5 8.6-1.5 9.9.3 10.4 1.6.5 19.5 4.2 25.2 5.2 1.4.2 3.4.6 4.6.9 1.2.3 3.9.7 6 1 2.1.3 4.8.8 6 1 1.2.3 3.9.7 6 1 2.1.3 6.5 1.1 9.7 1.6 3.3.6 7.3 1.2 9 1.4 1.8.2 4.8.6 6.7.9 3.7.6 8.5 1.1 18.5 2.1 3.3.3 7.4.8 9 1 5.7.8 24.2 2.5 33 3.1 4.7.2 19.9 1.1 34.5 2 9.2.5 71.5.5 83.5 0 14.5-.6 30.2-1.5 36.5-2.1 3-.2 8.7-.7 12.5-1 3.9-.3 8.6-.8 10.5-1 1.9-.3 6.2-.8 9.5-1.1 8.9-.8 16.5-1.8 24.5-2.9 1.4-.2 4.5-.7 7-1 2.5-.3 5.6-.8 7-1 1.4-.2 4.3-.6 6.5-1 2.3-.3 5.2-.8 6.5-1 1.4-.3 4-.8 5.9-1.1 1.8-.3 4.3-.8 5.5-1 1.1-.2 3.7-.7 5.6-1 1.9-.3 4.3-.7 5.2-1 1-.3 3-.7 4.5-1 7.9-1.3 36.1-7.9 44.6-10.5 3.7-1.2 7.3-2.2 8-2.3 5-.9 29.5-9.5 39.7-13.9 1.4-.5 2.7-1.1 3-1.2.3 0 3.7-1.6 7.5-3.4 18.8-9 30.1-19.5 28.7-26.7-1.1-5.9-13-14.1-27.2-18.8-6.2-2-18-5.4-21-6-1.4-.3-5.6-1.2-9.5-2.1-7.6-1.8-8.8-2-15.5-3-2.5-.4-7.5-1.3-11.2-2-3.8-.7-6.8-1.2-6.9-1.1zM47 252.4c-12.1 4.6-17.2 7.2-21.9 11.2-7 6-7.2 12.2-.6 18.8 6.3 6.3 22.6 15.3 39.5 21.7 1.9.8 3.7 1.4 4 1.5.6.1 3.4 1.2 6.5 2.4 3.8 1.5 15.5 5 16.9 5 .9 0 1.8-2.2 2.5-6.5.6-3.5 2-9.9 3.1-14.2 1-4.2 1.8-7.8 1.7-7.8-.1-.1-5.4-2.7-11.8-5.8-16.4-8.1-24-15.2-28.7-27-.7-1.5-1.5-2.7-1.9-2.6-.5.1-4.6 1.6-9.3 3.3zm545.1 117.5c-3.5 3.9-13.9 11.1-15.9 11.1-.7 0-1.2.4-1.2.9 0 2-33.9 14-47 16.7-1.4.3-4.1.9-6 1.4-1.9.5-4.6 1.1-6 1.4-1.4.3-3.4.7-4.5.9-1.1.3-4 .8-6.5 1.3-2.5.4-4.7.8-5 .9-.8.2-10.3 1.7-12.5 2.1-1.1.1-3.6.5-5.5.8-1.9.3-7.1 1-11.5 1.6-4.4.6-9.1 1.2-10.5 1.5-1.4.2-4.7.7-7.5.9-2.7.3-7.2.8-10 1.1-19.7 2-45.4 4-66.5 5-4.7.3-12.5.7-17.5.9-50.3 2.6-116.9 2.6-155 .1-18.8-1.2-23.4-1.6-27.5-2.1-2.5-.3-6.7-.7-9.5-1-2.7-.2-6.3-.6-8-.8-1.6-.3-5.9-.8-9.5-1.1-3.6-.4-6.8-.9-7.1-1.1-.3-.2-3.3-.6-6.5-1-3.2-.3-6.3-.7-6.9-.7-.5-.1-.9.9-.8 2.3 1 11.7 1.4 14.8 1.7 16.5.2 1.2.8 4.8 1.2 8 .4 3.3.9 6.2.9 6.5 1.6 5.9 1.4 5.8 8.3 6.5 3.7.4 7.6.9 8.7 1.1 3.6.7 15.3 2.3 21 2.9 2.2.2 5.8.7 8 1 2.2.3 6.5.8 9.5 1.1 3 .3 7.1.7 9 1 3.8.4 11.9 1.1 22 1.9 3.6.2 6.5.5 6.5.5 0 .2 17.8 1.4 39 2.6 6.1.4 15.4.7 20.7.8 5.4 0 9.8.3 9.8.6 0 .7 6.9.4 7.6-.3.3-.3 1.6-.2 2.8.2 2.2.8 71.8.6 91.1-.3 15-.6 39.9-2.2 49.5-3.2 1.9-.2 6.9-.6 11-.9 4.1-.3 9.1-.8 11-1 1.9-.3 6.1-.8 9.3-1 6.7-.6 13.2-1.3 16.7-2 1.4-.2 4.8-.7 7.5-1 11-1.4 17.2-2.2 21.7-3 1.8-.3 4.4-.7 5.8-.9 1.4-.2 5.2-.9 8.5-1.5s7.8-1.3 10-1.7c5.9-.9 41.6-8.4 42.5-8.9.4-.2 2-.7 3.6-.9 20.1-3.7 59.1-17.3 70.5-24.6 8.7-5.6 10.9-8.5 10.3-13.4-1.4-12.4-22.4-22.6-63.9-31.1-13.3-2.8-13.6-2.7-17.4 1.4zM27.2 382c-13 4.5-19.4 7.9-23.9 12.8-11.6 12.3 9.9 26.6 60.7 40.3 5.8 1.6 7.1 1.9 9.3 2.1.9.1 1.7.5 1.7.8 0 .3.8.6 1.8.6 2.6.2 7.8 1.3 10.5 2.3 3.8 1.5 4.5.2 3.6-6.4-.5-3.3-1.1-8.3-1.4-11-.3-2.8-.8-7.3-1.1-10-.3-2.8-.5-6.6-.4-8.6.1-4 .4-3.7-10.5-7.4-11.4-3.9-23.4-9.8-30.6-15.1-3.2-2.4-6.5-4.4-7.2-4.4-.6 0-6.3 1.8-12.5 4zm545.7 91.7c-.1.5-.3 2.2-.5 3.9-1.3 10.8-12.8 22.2-31.9 31.5-3.8 1.8-7.2 3.4-7.5 3.4-.3.1-2.3.9-4.5 1.9-3.8 1.6-28.7 9.6-35 11.2-1.6.4-3.2.8-3.5.9-1.1.3-6.6 1.6-8.5 1.9-1.1.3-5.4 1.2-9.5 2.1-4.1.9-8.8 1.8-10.5 2.1-3.8.5-8.3 1.2-11.4 1.8-1.2.3-4.2.8-6.5 1-2.2.3-5.2.8-6.6 1-2.2.4-5 .7-17 2.1-10.7 1.2-25.5 2.5-34.5 3-3.3.2-6 .4-6 .5 0 .5-49.1 2.3-55 2-2.2-.1-4.7-.2-5.5-.1-1.2.1-11.7.1-17.5.1-.5-.1-3.2 0-6 .1-8.7.2-44.3-1.4-55-2.5-3.3-.3-8.7-.8-12-1.1-3.3-.2-7.6-.7-9.5-1-1.9-.2-5.7-.7-8.5-1-8.8-.9-13.9-1.6-16.5-2.1-1.4-.2-3.4-.6-4.5-.8-1.1-.2-4.2-.7-6.9-1-2.7-.4-5.3-.9-5.7-1.2-.4-.2-2-.6-3.6-.8-5.9-.8-10.9-1.8-14.2-2.6-1.9-.5-3.7-.7-4-.5-.5.6 5.8 17.7 10 27.2 2.9 6.5 3.2 6.7 10.9 7.7 1.9.2 6.9.9 11 1.5 9.8 1.4 16.7 2.2 21 2.6 4.8.4 13.7 1.5 18.3 2.1 2.1.3 6.4.7 9.5.9 3.1.2 8.4.6 11.7.9 3.3.4 9.4.9 13.5 1.2 4.1.2 10.9.7 15 1 17.6 1.2 28.8 1.5 69.1 1.9 23.4.1 44.3 0 46.5-.4 2.1-.4 5.1-.4 6.6 0s3 .4 3.3.1c.3-.4 3.2-.7 6.3-.8 7.1-.2 21.7-1.2 29.7-1.9 3.3-.3 8.3-.8 11-1 7.9-.6 16.7-1.5 20-2 1.7-.2 5.3-.7 8-1 10.3-1.2 25.1-3.3 29.5-4.1 1.4-.3 4.3-.7 6.5-1 2.2-.3 5.6-.9 7.5-1.4 1.9-.5 5.1-1.1 7-1.4 4.9-.8 8.7-1.5 14-2.7 2.5-.6 5.4-1.2 6.5-1.5 14.6-2.8 48-12.4 59.5-17.1.8-.4 1.7-.7 2-.8 5.9-2.2 9.1-3.7 17.6-8.1 5.6-2.8 11.2-6 12.4-7 6.3-5.1 11-9.8 11-11 0-.8.4-1.4.8-1.4 1.6 0 1.3-8.1-.4-11.6-1.5-3-10-10.7-12.2-11-.4 0-2.7-1-5.2-2.2-4.9-2.3-22.3-7.4-31-9.1-3-.6-6.6-1.4-8-1.6-1.4-.3-4.1-.8-6-1.1-1.9-.2-4.6-.7-6-.9-7.3-1.3-9-1.5-9.1-.8zM54.5 493.9c-8.5 3.1-16.8 7.7-20.7 11.6-2.1 2.1-3.5 4.1-3.3 4.6.3.4.1 1-.5 1.4-.7.4-.7 1.2 0 2.4.5 1 .7 2 .5 2.3-.3.2 1.2 2.2 3.3 4.4 4.9 5.3 14.1 10.8 26 15.5 1.2.5 3.2 1.3 4.5 1.8 3.2 1.4 20.6 7.2 22.6 7.6 1 .2 4.9 1.2 8.7 2.3 6.1 1.8 11.3 3.1 24.7 6.1 3.6.9 3.7.8 3.1-1.2-.4-1.2-1.3-3.4-2-4.9-.8-1.5-1.4-3-1.4-3.3 0-.3-.7-2.1-1.5-4.1-.8-2-1.5-4.2-1.5-4.9 0-.6-.3-1.5-.7-1.9-.5-.4-2.1-4.6-3.8-9.3l-3-8.5-8.5-3.4c-4.7-1.8-9.1-3.3-9.7-3.4-.7 0-1.3-.5-1.3-1 0-.6-.6-1-1.3-1-1.6 0-17.7-8.5-23.2-12.3-4.6-3.1-4.4-3.1-11-.8zM587.4 578c.6 6.3-1.4 11-7 16.5-7 6.9-7.3 7.1-17.8 12.1-9.9 4.7-20.3 8.3-34.6 12-4 1.1-19.9 4.5-22.5 4.9-1.6.2-4.6.7-6.5 1.1-4.5.9-5.2.9-13 0-10-1.3-12.6-1.5-25-2.1-20.9-1.1-33.3-.8-49 1-2.2.2-10.5 1.7-16.5 2.9-4.7.9-18.4 4.6-22.3 6-2.3.8-4.2 1.3-4.2 1.1 0-.2-1.5.2-3.2.9-2.6 1.1-10.4 1.3-36.3 1-41.8-.4-65.9-1.5-85.5-3.9-3-.4-7.5-.8-10-1-2.5-.1-5.4-.5-6.5-.8-1.1-.3-4.5-.8-7.6-1.2-3.1-.3-6.7-.8-8-1.1-4.9-1-10.9-1.5-10.9-.9 0 .8 4.4 6.9 5.3 7.3.4.2.7.8.7 1.3 0 1 4.8 7.9 12.8 18.4 9 11.7 10.9 13.5 14.5 13.6 1.7 0 4.1.2 5.2.5 1.1.2 4 .6 6.5.9 2.5.3 5.5.8 6.7 1 1.2.3 4.6.8 7.5 1 9.5 1 14.3 1.5 16.3 1.9 1.1.3 3.1.5 4.5.5 1.9.1.9 1-4.9 4.6-4 2.5-7.5 4.5-7.7 4.5-.3 0-1.4.9-2.6 2-1.2 1.1-2.8 2-3.5 2-.7 0-1.3.4-1.3 1 0 .5-.5 1-1 1-.6 0-1.6.5-2.3 1-.7.6-4.8 3.7-9.2 6.8-9.8 7.1-16.8 13.9-19.3 18.8-1.6 3-1.7 4.5-1 8.7.6 3.1 1.8 5.7 3.1 6.9 1.9 1.5 14.1 8.1 15.7 8.4.3 0 4.3 1.2 9 2.7 7.4 2.3 16.8 4.6 25 6.1 1.4.3 3.4.7 4.5.9 1.1.3 4 .8 6.5 1.1 2.5.3 5.6.8 7 1.1 2.2.4 6.6.9 18 2.1 22.6 2.3 61 2.3 80.3-.1 2-.3 5.6-.7 8-1 4-.5 8.5-1.3 21.5-3.5 3.1-.5 7.2-1.4 9-1.9 1.8-.5 3.5-1 3.7-1 .3-.1.6-.1.8-.2.1 0 1.3-.2 2.7-.5 4.4-.8 23.5-6.6 24.5-7.5.5-.5 1.6-.9 2.4-.9 2.9 0 16.2-7.3 18.7-10.2 3-3.7 3-4-.6-8.2-3.1-3.5-13.4-8-20.9-9.2-2-.3-3.9-.8-4.2-1-.4-.2-2.4-.6-4.5-.9-2.2-.3-5-.7-6.4-1-1.4-.3-5-.8-8-1.1-3-.3-7.5-.7-10-.9-26.2-2.6-76-3.5-105-2.1-21.1 1.1-26.3 1.4-29.5 2-1.6.3-2.4.2-1.9-.3.9-.8 25.3-9.9 28.4-10.6.8-.2 3.5-1.1 6-2 5.3-1.9 3.4-1.4 23-6.5 8.5-2.3 17.2-4.3 19.4-4.5 2.1-.2 4.6-.7 5.5-.9 1.9-.6 7.2-1.3 15.6-2.3 3.3-.3 17.3-.6 31-.6 22.5 0 29.1.3 40.5 1.8 1.9.2 5.3.7 7.5 1 2.3.3 5.2.8 6.5 1.1 1.4.2 3.9.7 5.5.9 1.7.3 4.1.7 5.5 1.1 1.4.3 4.1.9 6 1.4 9.7 2.2 27.6 7.8 35.5 11 1.1.4 5.8 2.3 10.5 4.1 4.7 1.8 14.6 6.2 22 9.7 7.4 3.6 13.7 6.6 14 6.7.3 0 2.1.9 4 1.9 1.9 1.1 6.9 3.7 11 5.9 4.1 2.1 8.1 4.4 8.8 4.9.6.6 1.2.7 1.2.2 0-.5.4-.4.8.2.4.5 2.3 1.8 4.2 2.8 1.9.9 4.4 2.3 5.5 2.9 1.1.7 5.6 3.2 10 5.6 7.6 4.2 10.1 5.6 17.8 9.9 1.7 1.1 5.9 3.4 9.2 5.3 3.3 1.8 6.2 3.7 6.3 4.1.2.4.8.8 1.2.8.7 0 15.2 8.3 37.3 21.4 3 1.8 6.1 1.9 51.5 2.1 26.5.1 48.2 0 48.2-.1 0-.2-1.5-1.1-3.2-2-1.8-.9-3.5-2-3.8-2.3-.6-.8-20.2-13.2-23-14.6-1.1-.5-2-1.3-2-1.7 0-.5-.4-.8-.9-.8s-5.9-3.2-12-7c-6-3.9-11.4-7-12-7-.5 0-1.1-.3-1.3-.8-.1-.4-5.5-3.8-11.8-7.7-6.3-3.8-11.6-7.3-11.8-7.7-.2-.4-.8-.8-1.3-.8-.7 0-16.6-9.2-37.9-22-.8-.5-7.1-4.1-14-8.1s-12.7-7.5-13-7.9c-.3-.3-2.7-1.6-5.5-3-2.7-1.4-5.1-2.8-5.3-3.3-.2-.4-.8-.7-1.4-.7-.5 0-2.3-.9-3.9-2.1-1.6-1.1-2.9-1.7-2.9-1.3 0 .4-.8 0-1.7-.8-1-.8-5.4-3.5-9.8-5.8-20-10.7-28.7-15.3-38.7-20.2-6-2.9-10.8-5.6-10.8-5.9 0-.4 1.4-1.1 3.1-1.4 1.8-.4 4.8-1.4 6.8-2.3 2-.9 3.8-1.6 4.1-1.7 5-1.1 26.9-11.7 33.3-16.2 11.7-8.1 16-13.6 16.3-21 .4-9.5-5.2-16.3-19.1-23.2-7.8-3.9-22-9.1-25-9.1-1.1 0-1.4 1-1.1 4zm-480.6 11.5c-11.5 6.1-18.4 13.8-17.3 19.5 1 5.1 2 6.8 7 11.5 11.9 11.3 37.2 22.7 70.8 31.9 7 2 13.2 3.8 13.7 4.1 3 1.9-1.7-5.8-11.8-19.3-.9-1.3-2.4-3.6-3.2-5-6.6-11.3-13.1-20-15.4-20.6-4.4-1.1-15.8-6.8-22.6-11.3-7.6-5-9.6-6.7-13-10.8l-2.5-3.1-5.7 3.1z"/></svg>